<svg xmlns="http://www.w3.org/2000/svg" viewBox="9336.299 7672 32.903 32.903"><defs><style>.a{fill:#444;}</style></defs><g transform="translate(9336.298 7672)"><circle class="a" cx="3.187" cy="3.187" r="3.187" transform="translate(13.264 13.264)"/><path class="a" d="M19.612,12.985h2.262a.442.442,0,0,0,.411-.411V10.311a.442.442,0,0,0-.411-.411H19.612a.442.442,0,0,0-.411.411v2.262C19.1,12.779,19.3,12.985,19.612,12.985Z" transform="translate(0.541 0.279)"/><path class="a" d="M16.452,0A16.452,16.452,0,1,0,32.9,16.452,16.5,16.5,0,0,0,16.452,0Zm8.226,22.724a2.022,2.022,0,0,1-1.954,1.954H10.179a1.952,1.952,0,0,1-1.954-1.954V10.179a1.952,1.952,0,0,1,1.954-1.954H22.724a1.952,1.952,0,0,1,1.954,1.954Z"/><path class="a" d="M21.213,16.037a5.038,5.038,0,1,1-10.077,0,6.018,6.018,0,0,1,.206-1.337H9.8v7.2a.442.442,0,0,0,.411.411H22.036a.442.442,0,0,0,.411-.411V14.7H20.9A3.166,3.166,0,0,1,21.213,16.037Z" transform="translate(0.277 0.415)"/></g></svg>