<svg xmlns="http://www.w3.org/2000/svg" viewBox="9383.597 7672 32.903 32.903"><defs><style>.a{fill:#444;}</style></defs><path class="a" d="M16.452,0A16.452,16.452,0,1,0,32.9,16.452,16.5,16.5,0,0,0,16.452,0Zm6.581,13.058v.411a9.517,9.517,0,0,1-9.562,9.562A8.685,8.685,0,0,1,8.329,21.49h.823a6.746,6.746,0,0,0,4.216-1.44,3.536,3.536,0,0,1-3.187-2.365c.206,0,.411.1.617.1a2.847,2.847,0,0,0,.925-.1A3.319,3.319,0,0,1,9.048,14.4h0a3.406,3.406,0,0,0,1.542.411A3.374,3.374,0,0,1,9.048,12.03a4.844,4.844,0,0,1,.411-1.748,9.287,9.287,0,0,0,6.992,3.5,1.75,1.75,0,0,1-.1-.72,3.423,3.423,0,0,1,3.393-3.393,3.591,3.591,0,0,1,2.468,1.028,5.539,5.539,0,0,0,2.159-.823,3.282,3.282,0,0,1-1.44,1.851,10.846,10.846,0,0,0,1.954-.514A7.853,7.853,0,0,1,23.032,13.058Z" transform="translate(9383.597 7672)"/></svg>