<?xml version="1.0" encoding="iso-8859-1"?>
<!-- Generator: Adobe Illustrator 19.0.0, SVG Export Plug-In . SVG Version: 6.00 Build 0)  -->
<svg version="1.1" id="Layer_1" xmlns="http://www.w3.org/2000/svg" xmlns:xlink="http://www.w3.org/1999/xlink" x="0px" y="0px"
	 viewBox="0 0 512 512" style="enable-background:new 0 0 512 512;" xml:space="preserve">
<circle style="fill:#FFC61B;" cx="256" cy="256" r="256"/>
<path style="fill:#EAA22F;" d="M357.181,130.293l-20.313-20.313l-23.261,46.895l-159.146,9.595l43.26,43.26l-8.666,50.795
	l-31.163,17.024l-49.971,88.464l145.96,145.96c0.707,0.005,1.41,0.028,2.119,0.028c141.384,0,256-114.616,256-256
	c0-1.6-0.031-3.193-0.06-4.784L385.843,125.119L357.181,130.293z"/>
<rect x="189.957" y="163.409" style="fill:#71E2EF;" width="29.393" height="69.456"/>
<rect x="203.714" y="163.409" style="fill:#38C6D9;" width="15.619" height="69.456"/>
<path style="fill:#02B2B2;" d="M328.854,168.748H159.673c-3.934,0-7.123-3.189-7.123-7.123l0,0c0-3.934,3.189-7.123,7.123-7.123
	h169.181V168.748z"/>
<rect x="307.493" y="109.98" style="fill:#386895;" width="29.393" height="146.911"/>
<polygon style="fill:#487AA3;" points="278.1,286.286 141.567,286.286 170.951,227.516 278.1,227.516 "/>
<rect x="203.714" y="227.521" style="fill:#386895;" width="74.387" height="58.768"/>
<circle style="fill:#273B7A;" cx="307.493" cy="286.289" r="88.143"/>
<path style="fill:#121149;" d="M307.484,198.132c48.685,0,88.152,39.467,88.152,88.152s-39.467,88.152-88.152,88.152V198.132z"/>
<circle style="fill:#386895;" cx="307.493" cy="286.289" r="66.782"/>
<path style="fill:#273B7A;" d="M307.484,219.503c36.883,0,66.782,29.899,66.782,66.782s-29.899,66.782-66.782,66.782V219.503z"/>
<g>
	<rect x="327.077" y="125.121" style="fill:#02B2B2;" width="58.768" height="14.246"/>
	<polygon style="fill:#02B2B2;" points="142.458,345.054 113.074,345.054 160.565,227.516 189.949,227.516 	"/>
</g>
<circle style="fill:#273B7A;" cx="128.517" cy="345.057" r="29.393"/>
<path style="fill:#121149;" d="M128.509,315.67c16.229,0,29.384,13.155,29.384,29.384s-13.155,29.384-29.384,29.384V315.67z"/>
<g>
</g>
<g>
</g>
<g>
</g>
<g>
</g>
<g>
</g>
<g>
</g>
<g>
</g>
<g>
</g>
<g>
</g>
<g>
</g>
<g>
</g>
<g>
</g>
<g>
</g>
<g>
</g>
<g>
</g>
</svg>
