<?xml version="1.0" encoding="iso-8859-1"?>
<!-- Generator: Adobe Illustrator 19.0.0, SVG Export Plug-In . SVG Version: 6.00 Build 0)  -->
<svg version="1.1" id="Layer_1" xmlns="http://www.w3.org/2000/svg" xmlns:xlink="http://www.w3.org/1999/xlink" x="0px" y="0px"
	 viewBox="0 0 512 512" style="enable-background:new 0 0 512 512;" xml:space="preserve">
<path style="fill:#274E2D;" d="M510.5,228.287c-6.064-55.997-30.54-110.378-73.468-153.306c-99.977-99.976-262.07-99.976-362.046,0
	c-99.977,99.977-99.977,262.07,0,362.046c51.789,51.789,120.244,76.74,188.1,74.876L510.5,228.287z"/>
<path style="fill:#193D2F;" d="M510.5,228.287l-72.757-72.757l-21.59,21.59l-127.88-127.88L124.736,373.568l138.351,138.335
	c63.139-1.735,125.757-26.688,173.945-74.876C494.081,379.979,518.558,302.706,510.5,228.287z"/>
<rect x="205.38" y="270.929" transform="matrix(0.7071 -0.7071 0.7071 0.7071 -167.6675 248.813)" style="fill:#DDD532;" width="22.261" height="111.74"/>
<path style="fill:#A0AD2F;" d="M161.919,238.628l54.035,87.636c-36.409,14.906-89.489,4.956-118.058-23.611
	c-28.569-28.568-38.518-81.649-23.611-118.058L161.919,238.628z"/>
<path style="fill:#81982D;" d="M192.341,208.204c28.569,28.569,38.518,81.649,23.611,118.058l-141.67-141.67
	C110.692,169.687,163.773,179.636,192.341,208.204z"/>
<rect x="205.389" y="335.296" transform="matrix(0.7071 -0.7071 0.7071 0.7071 -213.179 267.6722)" style="fill:#DDD532;" width="22.261" height="111.74"/>
<path style="fill:#63842C;" d="M175.005,323.298l42.427,68.81c-28.588,11.704-70.266,3.892-92.696-18.539
	c-22.431-22.432-30.243-64.109-18.539-92.696L175.005,323.298z"/>
<path style="fill:#44702A;" d="M198.893,299.41c22.432,22.432,30.243,64.109,18.539,92.696L106.197,280.871
	C134.783,269.167,176.461,276.98,198.893,299.41z"/>
<g>
	
		<rect x="284.402" y="241.873" transform="matrix(-0.7071 -0.7071 0.7071 -0.7071 293.97 717.2514)" style="fill:#BEC130;" width="22.261" height="111.74"/>
	
		<rect x="284.4" y="306.243" transform="matrix(-0.7071 -0.7071 0.7071 -0.7071 248.4502 827.1372)" style="fill:#BEC130;" width="22.261" height="111.74"/>
</g>
<rect x="244.886" y="140.992" style="fill:#DDD532;" width="22.261" height="345.05"/>
<path style="fill:#44702A;" d="M232.253,126.892l23.759,100.176c36.286-15.204,66.784-59.774,66.784-100.176
	S292.299,41.92,256.013,26.716L232.253,126.892z"/>
<path style="fill:#63842C;" d="M189.229,126.892c0,40.402,30.498,84.971,66.784,100.176V26.716
	C219.728,41.92,189.229,86.49,189.229,126.892z"/>
<path style="fill:#44702A;" d="M350.107,209.566l-54.035,87.636c36.409,14.906,89.49,4.956,118.058-23.611
	c28.568-28.568,38.518-81.649,23.611-118.058L350.107,209.566z"/>
<path style="fill:#63842C;" d="M319.685,179.142c-28.569,28.569-38.518,81.649-23.611,118.058l141.67-141.67
	C401.334,140.625,348.254,150.574,319.685,179.142z"/>
<path style="fill:#81982D;" d="M337.021,294.235l-42.427,68.81c28.588,11.704,70.266,3.892,92.696-18.539
	c22.432-22.432,30.243-64.109,18.539-92.696L337.021,294.235z"/>
<path style="fill:#A0AD2F;" d="M313.134,270.348c-22.432,22.432-30.243,64.109-18.539,92.696L405.83,251.809
	C377.242,240.105,335.565,247.917,313.134,270.348z"/>
<path style="fill:#81982D;" d="M242.461,169.933l13.552,57.135c20.695-8.672,38.09-34.092,38.09-57.135s-17.395-48.463-38.09-57.135
	L242.461,169.933z"/>
<path style="fill:#A0AD2F;" d="M217.923,169.933c0,23.043,17.395,48.463,38.09,57.135v-114.27
	C235.318,121.47,217.923,146.889,217.923,169.933z"/>
<path style="fill:#81982D;" d="M286.819,212.316l-30.819,49.982c20.765,8.502,51.04,2.827,67.334-13.467
	c16.294-16.294,21.969-46.568,13.467-67.334L286.819,212.316z"/>
<path style="fill:#A0AD2F;" d="M269.468,194.965c-16.294,16.294-21.969,46.568-13.467,67.334l80.801-80.801
	C316.035,172.996,285.761,178.671,269.468,194.965z"/>
<path style="fill:#63842C;" d="M225.182,212.316l30.819,49.982c-20.765,8.502-51.041,2.827-67.334-13.467
	c-16.294-16.294-21.969-46.568-13.467-67.334L225.182,212.316z"/>
<path style="fill:#44702A;" d="M242.534,194.965c16.294,16.294,21.969,46.568,13.467,67.334L175.2,181.498
	C195.965,172.996,226.24,178.671,242.534,194.965z"/>
<g>
</g>
<g>
</g>
<g>
</g>
<g>
</g>
<g>
</g>
<g>
</g>
<g>
</g>
<g>
</g>
<g>
</g>
<g>
</g>
<g>
</g>
<g>
</g>
<g>
</g>
<g>
</g>
<g>
</g>
</svg>
