<svg xmlns="http://www.w3.org/2000/svg" viewBox="5116.9 6409.1 35.9 35.9"><defs><style>.a{fill:#fff;}</style></defs><path class="a" d="M229.006,876.305A17.064,17.064,0,0,1,241.75,871.1a18.072,18.072,0,0,1,12.745,5.205A17.064,17.064,0,0,1,259.7,889.05a17.767,17.767,0,0,1-5.205,12.745A17.064,17.064,0,0,1,241.75,907a17.766,17.766,0,0,1-12.745-5.206A17.064,17.064,0,0,1,223.8,889.05,17.47,17.47,0,0,1,229.006,876.305Zm21.72,19.027-6.462-6.462,6.462-6.462-2.513-2.513-6.462,6.462-6.462-6.462-2.513,2.513,6.462,6.462-6.462,6.462,2.513,2.513,6.462-6.462,6.462,6.462Z" transform="translate(4893.1 5538)"/></svg>