<svg xmlns="http://www.w3.org/2000/svg" viewBox="3844 8160 129 50.2"><defs><style>.a{fill:#818d9b;font-size:12px;font-family:Gotham-Bold, Gotham;font-weight:700;text-decoration:underline;}.b{fill:#f7b464;}</style></defs><g transform="translate(3802 7545)"><text class="a" transform="translate(43 626)"><tspan x="0" y="0">Average Yelp Review</tspan></text><path class="b" d="M936,990.7l-6.2,3.8,1.6-7-5.4-4.7,7.2-.6,2.8-6.6,2.8,6.6,7.2.6-5.4,4.7,1.6,7Z" transform="translate(-884 -330)"/><path class="b" d="M22,1018l-5.4,4.7,1.6,7L12,1026l-6.2,3.8,1.6-7L2,1018l7.2-.6,2.8-6.7,2.8,6.7Zm-10,6.1,3.8,2.3-1-4.3,3.3-2.9-4.4-.4-1.7-4v9.3Z" transform="translate(100 -365)"/><path class="b" d="M58.9,1017.5l-5.4,4.7,1.6,7-6.2-3.8-6.2,3.8,1.6-7-5.4-4.7,7.2-.6,2.8-6.6,2.8,6.6Zm-9.9,6.1,3.8,2.2-1-4.3,3.3-2.9-4.4-.4-1.7-4-1.7,4-4.4.4,3.3,2.9-1,4.3Z" transform="translate(83 -364)"/><path class="b" d="M936,990.7l-6.2,3.8,1.6-7-5.4-4.7,7.2-.6,2.8-6.6,2.8,6.6,7.2.6-5.4,4.7,1.6,7Z" transform="translate(-864 -330)"/><path class="b" d="M936,990.7l-6.2,3.8,1.6-7-5.4-4.7,7.2-.6,2.8-6.6,2.8,6.6,7.2.6-5.4,4.7,1.6,7Z" transform="translate(-844 -330)"/></g></svg>