<svg xmlns="http://www.w3.org/2000/svg" viewBox="4218.686 7853 8.314 11.53"><defs><style>.a{fill:#d12020;stroke:#000;}</style></defs><path class="a" d="M301.593,802.538a3.405,3.405,0,0,1,2.542-1.038,3.543,3.543,0,0,1,3.579,3.579,4.421,4.421,0,0,1-.363,1.712,12,12,0,0,1-.934,1.816c-.363.571-.726,1.089-1.038,1.608a8.915,8.915,0,0,1-.882,1.193l-.415.415c-.1-.1-.207-.259-.415-.467a11.445,11.445,0,0,1-.882-1.141c-.415-.571-.778-1.089-1.089-1.608a13.975,13.975,0,0,1-.882-1.764,4.807,4.807,0,0,1-.415-1.764A4.479,4.479,0,0,1,301.593,802.538Zm1.66,3.476a1.382,1.382,0,1,0-.363-.934A1.25,1.25,0,0,0,303.253,806.013Z" transform="translate(3918.786 7052)"/></svg>