<svg xmlns="http://www.w3.org/2000/svg" viewBox="8850.8 8204.919 67.622 64.488"><defs><style>.a{fill:#f7b464;stroke:#000;}</style></defs><path class="a" d="M391.018,838.351,376.46,823.792a13.4,13.4,0,0,1,0-19.411l24.265,24.264Zm23.571-6.586-5.2,5.2,23.918,23.918-4.853,4.853-23.918-23.918-23.918,23.918-4.853-4.853,33.97-33.97c-1.386-2.773-1.386-5.546-.693-9.012a18.8,18.8,0,0,1,5.546-9.359,19.446,19.446,0,0,1,11.092-5.893,10.617,10.617,0,0,1,10.052,3.12c2.773,2.773,3.466,5.893,3.12,10.052s-2.427,7.973-5.893,11.439a18.123,18.123,0,0,1-9.359,5.2C420.136,833.152,417.016,833.152,414.59,831.765Z" transform="translate(8479 7402.964)"/></svg>