<?xml version="1.0" encoding="iso-8859-1"?>
<!-- Generator: Adobe Illustrator 19.0.0, SVG Export Plug-In . SVG Version: 6.00 Build 0)  -->
<svg version="1.1" id="Layer_1" xmlns="http://www.w3.org/2000/svg" xmlns:xlink="http://www.w3.org/1999/xlink" x="0px" y="0px"
	 viewBox="0 0 512 512" style="enable-background:new 0 0 512 512;" xml:space="preserve">
<path style="fill:#C9E5FF;" d="M505.405,198.026C479.137,84.567,377.445,0,256,0C114.615,0,0,114.615,0,256
	c0,126.655,91.983,231.811,212.788,252.35L505.405,198.026z"/>
<path style="fill:#92CCFF;" d="M512,256c0-19.939-2.282-39.346-6.595-57.974l-92.085-92.085L81.171,354.611l104.07,104.07
	l-11.06,11.06l38.608,38.608C226.837,510.739,241.27,512,256,512C397.384,512,512,397.384,512,256z"/>
<path style="fill:#274E2D;" d="M185.311,66.82l-66.783,155.826l66.783,183.652h11.13c0-12.305,9.956-22.261,22.261-22.261
	c55.096,0,100.174-45.078,100.174-100.174v-83.478C318.876,126.62,259.076,66.82,185.311,66.82z"/>
<path style="fill:#365F2C;" d="M51.745,200.386v83.478c0,55.096,45.078,100.174,100.174,100.174
	c12.305,0,22.261,9.956,22.261,22.261h11.13v-44.522V66.82C111.545,66.82,51.745,126.62,51.745,200.386z"/>
<g>
	<path style="fill:#44702A;" d="M174.18,191.11h11.13V89.081c-40.853,0-76.63,22.127-95.991,55.023
		C107.059,172.317,138.464,191.11,174.18,191.11z"/>
	<path style="fill:#44702A;" d="M174.18,282.008h11.13V213.37h-11.13c-38.456,0-72.82-17.827-95.282-45.643
		c-2.28,7.414-3.801,15.156-4.48,23.136C78.998,241.884,121.987,282.008,174.18,282.008z"/>
	<path style="fill:#44702A;" d="M174.18,304.269c-41.364,0-77.999-20.622-100.174-52.122v31.716
		c0,42.961,34.952,77.913,77.913,77.913h33.391v-57.508H174.18z"/>
</g>
<rect x="174.18" y="200.381" style="fill:#63842C;" width="22.261" height="269.357"/>
<path style="fill:#274E2D;" d="M318.876,66.82l66.783,155.826l-66.783,183.652h-11.13c0-12.305-9.956-22.261-22.261-22.261
	c-55.096,0-100.174-45.078-100.174-100.174v-83.478C185.311,126.62,245.11,66.82,318.876,66.82z"/>
<path style="fill:#193D2F;" d="M452.441,200.386v83.478c0,55.096-45.078,100.174-100.174,100.174
	c-12.305,0-22.261,9.956-22.261,22.261h-11.13v-44.522V66.82C392.642,66.82,452.441,126.62,452.441,200.386z"/>
<g>
	<path style="fill:#274E2D;" d="M330.005,191.11h-11.13V89.081c40.853,0,76.63,22.127,95.991,55.023
		C397.126,172.317,365.722,191.11,330.005,191.11z"/>
	<path style="fill:#274E2D;" d="M330.005,282.008h-11.13V213.37h11.13c38.456,0,72.82-17.827,95.282-45.643
		c2.28,7.414,3.801,15.156,4.48,23.136C425.188,241.884,382.198,282.008,330.005,282.008z"/>
	<path style="fill:#274E2D;" d="M330.005,304.269c41.364,0,77.999-20.622,100.174-52.122v31.716
		c0,42.961-34.952,77.913-77.913,77.913h-33.391v-57.508H330.005z"/>
</g>
<rect x="307.745" y="200.381" style="fill:#44702A;" width="22.261" height="269.357"/>
<path style="fill:#63842C;" d="M252.093,27.864L185.311,183.69l66.783,222.609h11.13c0-12.305,9.956-22.261,22.261-22.261
	c55.096,0,100.174-45.078,100.174-100.174V161.429C385.658,87.663,325.859,27.864,252.093,27.864z"/>
<path style="fill:#A0AD2F;" d="M118.528,161.429v122.435c0,55.096,45.078,100.174,100.174,100.174
	c12.305,0,22.261,9.956,22.261,22.261h11.13v-44.522V161.429l-22.261-38.957l22.261-38.957V27.864
	C178.327,27.864,118.528,87.663,118.528,161.429z"/>
<g>
	<path style="fill:#44702A;" d="M252.093,50.125l-11.13,16.696l11.13,16.696c19.91,0,37.984-7.974,51.228-20.88
		C287.978,54.648,270.554,50.125,252.093,50.125z"/>
	<path style="fill:#44702A;" d="M336.654,89.139c-4.368-5.101-9.188-9.804-14.397-14.047
		c-17.494,18.859-42.473,30.683-70.164,30.683l-11.13,33.391l11.13,33.391l11.13-11.13
		C303.337,161.429,336.024,129.105,336.654,89.139z"/>
	<path style="fill:#44702A;" d="M363.398,161.429c0-15.632-3.246-30.519-9.088-44.03c-12.445,38.424-48.57,66.291-91.086,66.291
		h-11.13v77.913h11.13C318.46,261.603,363.398,216.665,363.398,161.429z"/>
	<path style="fill:#44702A;" d="M263.224,283.864h-11.13v77.913h33.391c42.961,0,77.913-34.952,77.913-77.913v-52.122
		C341.221,263.241,304.588,283.864,263.224,283.864z"/>
</g>
<g>
	<path style="fill:#63842C;" d="M167.531,89.139c0.63,39.966,33.318,72.29,73.431,72.29l11.13,11.13V50.125
		C218.289,50.125,187.962,65.276,167.531,89.139z"/>
	<path style="fill:#63842C;" d="M140.789,231.742v52.122c0,42.961,34.952,77.913,77.913,77.913h33.391v-77.913h-11.13
		C199.599,283.864,162.964,263.241,140.789,231.742z"/>
	<path style="fill:#63842C;" d="M178.753,160.657c-13.256-11.362-23.375-26.28-28.876-43.26
		c-5.673,13.119-8.889,27.537-9.071,42.672C152.21,167.735,167.168,167.928,178.753,160.657z"/>
	<path style="fill:#63842C;" d="M198.353,173.666c-10.813,9.705-24.465,14.561-38.118,14.561c-5.542,0-11.084-0.804-16.436-2.402
		c10.922,43.484,50.34,75.779,97.164,75.779h11.13v-77.913h-11.13C225.663,183.69,211.193,180.076,198.353,173.666z"/>
</g>
<rect x="240.963" y="161.425" style="fill:#81982D;" width="22.261" height="322.783"/>
<g>
</g>
<g>
</g>
<g>
</g>
<g>
</g>
<g>
</g>
<g>
</g>
<g>
</g>
<g>
</g>
<g>
</g>
<g>
</g>
<g>
</g>
<g>
</g>
<g>
</g>
<g>
</g>
<g>
</g>
</svg>
