<svg xmlns="http://www.w3.org/2000/svg" viewBox="1916.599 7761.6 296.8 75.8"><defs><style>.a,.i{fill:#fff;}.a,.b,.i{stroke:#707070;}.b{fill:#909090;}.c{fill:#c6c5ca;}.d{fill:#acabb1;}.e{fill:#d8d7da;}.f{fill:#ce8045;}.g{fill:#bc6c37;}.h{fill:#eaeaea;}.i{stroke-width:0.4px;font-size:60px;font-family:Courgette-Regular, Courgette;letter-spacing:-0.059em;}.j{stroke:none;}.k{fill:none;}</style></defs><g transform="translate(95)"><g class="a" transform="translate(1821.599 7772.77)"><circle class="j" cx="26.839" cy="26.839" r="26.839"/><circle class="k" cx="26.839" cy="26.839" r="26.339"/></g><g class="b" transform="translate(1824.079 7775.25)"><circle class="j" cx="24.359" cy="24.359" r="24.359"/><circle class="k" cx="24.359" cy="24.359" r="23.859"/></g><g transform="translate(1834.234 7774.636)"><rect class="c" width="4.212" height="12.384" transform="translate(4.537 21.181)"/><path class="d" d="M166.285,239.412h2.1c0-1.939,0-4.211,0-5.606a1.586,1.586,0,0,1,1.073-1.487,2.244,2.244,0,0,0,1.041-.722v-4.569h-4.212v12.384Z" transform="translate(-161.748 -205.847)"/><path class="e" d="M130.942,56.415a1.451,1.451,0,0,0-1.447-1.447h0a1.451,1.451,0,0,0-1.447,1.447V62.55a1.151,1.151,0,0,1-2.3,0v-6.1a1.472,1.472,0,0,0-1.27-1.474,1.45,1.45,0,0,0-1.623,1.436V62.55a1.151,1.151,0,0,1-2.3,0V56.415a1.451,1.451,0,0,0-1.447-1.447h0a1.451,1.451,0,0,0-1.447,1.447v11a6.663,6.663,0,0,0,6.643,6.643h0a6.663,6.663,0,0,0,6.643-6.643Z" transform="translate(-117.656 -49.84)"/><g transform="translate(0 5.128)"><path class="c" d="M121.661,68.2l.041-4.5a1.151,1.151,0,0,1-1.151-1.151V56.415a1.451,1.451,0,0,0-1.447-1.447h0a1.451,1.451,0,0,0-1.447,1.447v11a6.663,6.663,0,0,0,6.643,6.643h0a6.607,6.607,0,0,0,1.366-.143A6.664,6.664,0,0,1,121.661,68.2Z" transform="translate(-117.657 -54.968)"/><path class="c" d="M191.2,185.205a.721.721,0,0,1,.518-.878A3.039,3.039,0,0,0,194,181.384a.721.721,0,0,1,1.442,0,4.366,4.366,0,0,1-3.364,4.34A.7.7,0,0,1,191.2,185.205Z" transform="translate(-184.316 -168.936)"/></g><path class="f" d="M147.818,330.38v11.591a3.84,3.84,0,0,0,3.829,3.829h0a3.84,3.84,0,0,0,3.829-3.829V330.38A1.681,1.681,0,0,0,153.8,328.7h-4.3A1.681,1.681,0,0,0,147.818,330.38Z" transform="translate(-145.004 -298.033)"/><path class="g" d="M151,341.971V330.38a1.681,1.681,0,0,1,1.681-1.681H149.5a1.681,1.681,0,0,0-1.681,1.681v11.591a3.84,3.84,0,0,0,3.829,3.829h0a3.792,3.792,0,0,0,1.588-.348A3.841,3.841,0,0,1,151,341.971Z" transform="translate(-145.005 -298.033)"/><rect class="c" width="4.212" height="12.384" transform="translate(19.879 19.931)"/><path class="d" d="M330.724,226.02h2.1c0-1.939-.005-4.211,0-5.606a1.586,1.586,0,0,1,1.073-1.487,2.244,2.244,0,0,0,1.041-.722v-4.569h-4.212V226.02Z" transform="translate(-310.846 -193.705)"/><path class="e" d="M295.429.734c-2.119,3.253-4.657,9.282-5.01,19.736a2.42,2.42,0,0,0,2.417,2.5h5.554V1.616A1.612,1.612,0,0,0,295.429.734Z" transform="translate(-274.3 0)"/><path class="h" d="M298.391,4.458V1.627a1.612,1.612,0,0,0-2.962-.881c-2.119,3.253-4.657,9.282-5.01,19.736a2.42,2.42,0,0,0,2.417,2.5h1.342C294.178,22.943,293.822,12.652,298.391,4.458Z" transform="translate(-274.3 -0.01)"/><path class="f" d="M312.257,295.187v14.775a3.84,3.84,0,0,0,3.829,3.829h0a3.84,3.84,0,0,0,3.829-3.829V295.187a1.79,1.79,0,0,0-1.79-1.79h-4.078A1.79,1.79,0,0,0,312.257,295.187Z" transform="translate(-294.102 -266.025)"/><path class="g" d="M315.333,309.961V295.186a1.79,1.79,0,0,1,1.79-1.79h-3.076a1.79,1.79,0,0,0-1.79,1.79v14.775a3.84,3.84,0,0,0,3.829,3.829h0a3.793,3.793,0,0,0,1.538-.325A3.842,3.842,0,0,1,315.333,309.961Z" transform="translate(-294.102 -266.024)"/></g></g><text class="i" transform="translate(1971 7821)"><tspan x="0" y="0">Its-Licious</tspan></text></svg>