<svg xmlns="http://www.w3.org/2000/svg" viewBox="1724 7873 303 77"><defs><style>.a{fill:#818d9b;}.a,.b,.c{stroke:#707070;}.b{fill:#fff;font-size:60px;font-family:Courgette-Regular, Courgette;letter-spacing:-0.059em;}.c{fill:#909090;}.d{fill:#c6c5ca;}.e{fill:#acabb1;}.f{fill:#d8d7da;}.g{fill:#ce8045;}.h{fill:#bc6c37;}.i{fill:#eaeaea;}.j{stroke:none;}.k{fill:none;}</style></defs><g class="a" transform="translate(1724 7888)"><circle class="j" cx="24" cy="24" r="24"/><circle class="k" cx="24" cy="24" r="23.5"/></g><text class="b" transform="translate(1784 7933)"><tspan x="0" y="0">Its-Licious</tspan></text><g class="c" transform="translate(1727 7891)"><circle class="j" cx="21" cy="21" r="21"/><circle class="k" cx="21" cy="21" r="20.5"/></g><g transform="translate(1618.099 7890.471)"><rect class="d" width="3.631" height="10.676" transform="translate(121.567 18.26)"/><path class="e" d="M166.285,237.7h1.81c0-1.671,0-3.63,0-4.833a1.368,1.368,0,0,1,.925-1.282,1.934,1.934,0,0,0,.9-.622v-3.939h-3.631V237.7Z" transform="translate(-44.718 -208.768)"/><path class="f" d="M129.11,56.215a1.251,1.251,0,0,0-1.247-1.247h0a1.251,1.251,0,0,0-1.247,1.247V61.5a.993.993,0,0,1-1.985,0V56.248a1.269,1.269,0,0,0-1.1-1.271,1.25,1.25,0,0,0-1.4,1.238V61.5a.993.993,0,0,1-1.985,0V56.215a1.251,1.251,0,0,0-1.247-1.247h0a1.251,1.251,0,0,0-1.247,1.247V65.7a5.744,5.744,0,0,0,5.727,5.727h0A5.744,5.744,0,0,0,129.11,65.7Z" transform="translate(0 -50.547)"/><g transform="translate(117.656 4.421)"><path class="d" d="M121.109,66.378l.035-3.881a.993.993,0,0,1-.993-.993V56.215a1.251,1.251,0,0,0-1.247-1.247h0a1.251,1.251,0,0,0-1.247,1.247V65.7a5.744,5.744,0,0,0,5.727,5.727h0a5.7,5.7,0,0,0,1.177-.123A5.745,5.745,0,0,1,121.109,66.378Z" transform="translate(-117.657 -54.968)"/><path class="d" d="M191.195,184.579a.621.621,0,0,1,.447-.757,2.62,2.62,0,0,0,1.967-2.538.621.621,0,0,1,1.243,0,3.764,3.764,0,0,1-2.9,3.741A.6.6,0,0,1,191.195,184.579Z" transform="translate(-185.262 -170.553)"/></g><path class="g" d="M147.818,330.148v9.993a3.311,3.311,0,0,0,3.3,3.3h0a3.311,3.311,0,0,0,3.3-3.3v-9.993a1.449,1.449,0,0,0-1.449-1.449h-3.7A1.449,1.449,0,0,0,147.818,330.148Z" transform="translate(-27.736 -302.262)"/><path class="h" d="M150.557,340.141v-9.993a1.449,1.449,0,0,1,1.449-1.449h-2.738a1.449,1.449,0,0,0-1.449,1.449v9.993a3.311,3.311,0,0,0,3.3,3.3h0a3.269,3.269,0,0,0,1.369-.3A3.311,3.311,0,0,1,150.557,340.141Z" transform="translate(-27.737 -302.262)"/><rect class="d" width="3.631" height="10.676" transform="translate(134.794 17.183)"/><path class="e" d="M330.724,224.312h1.81c0-1.671,0-3.63,0-4.833a1.368,1.368,0,0,1,.925-1.282,1.934,1.934,0,0,0,.9-.622v-3.939h-3.631v10.676Z" transform="translate(-195.931 -196.453)"/><path class="f" d="M294.738.633c-1.827,2.8-4.015,8-4.319,17.015a2.086,2.086,0,0,0,2.084,2.158h4.788V1.393A1.389,1.389,0,0,0,294.738.633Z" transform="translate(-158.867 0)"/><path class="i" d="M297.291,3.845V1.4a1.39,1.39,0,0,0-2.553-.76c-1.827,2.8-4.015,8-4.319,17.015a2.086,2.086,0,0,0,2.084,2.158h1.157C293.66,19.781,293.352,10.909,297.291,3.845Z" transform="translate(-158.867 -0.011)"/><path class="g" d="M312.257,294.94v12.738a3.311,3.311,0,0,0,3.3,3.3h0a3.311,3.311,0,0,0,3.3-3.3V294.94a1.543,1.543,0,0,0-1.543-1.543H313.8A1.543,1.543,0,0,0,312.257,294.94Z" transform="translate(-178.949 -269.799)"/><path class="h" d="M314.909,307.677V294.939a1.543,1.543,0,0,1,1.543-1.543H313.8a1.543,1.543,0,0,0-1.543,1.543v12.738a3.311,3.311,0,0,0,3.3,3.3h0a3.27,3.27,0,0,0,1.326-.28A3.312,3.312,0,0,1,314.909,307.677Z" transform="translate(-178.949 -269.798)"/></g></svg>