<svg xmlns="http://www.w3.org/2000/svg" viewBox="9236.25 8942.356 12.098 12.12"><defs><style>.a{fill:#f7b464;stroke:#000;stroke-width:0.1px;}</style></defs><path class="a" d="M375.671,809.248l-2.622-2.76a2.635,2.635,0,0,1,0-3.68l4.37,4.6ZM379.916,808l-.936.986,4.307,4.535-.874.92-4.307-4.534L373.8,814.44l-.874-.92,6.117-6.44a2.621,2.621,0,0,1-.125-1.709,3.606,3.606,0,0,1,1-1.774,3.449,3.449,0,0,1,2-1.117,1.853,1.853,0,0,1,1.81.591,2.258,2.258,0,0,1,.562,1.906,3.555,3.555,0,0,1-1.061,2.169,3.222,3.222,0,0,1-1.685.986A2.232,2.232,0,0,1,379.916,808Z" transform="translate(8864 8139.964)"/></svg>