<?xml version="1.0" encoding="iso-8859-1"?>
<!-- Generator: Adobe Illustrator 19.0.0, SVG Export Plug-In . SVG Version: 6.00 Build 0)  -->
<svg version="1.1" id="Layer_1" xmlns="http://www.w3.org/2000/svg" xmlns:xlink="http://www.w3.org/1999/xlink" x="0px" y="0px"
	 viewBox="0 0 512 512" style="enable-background:new 0 0 512 512;" xml:space="preserve">
<path style="fill:#B9DDF9;" d="M256.005,0C397.384,0,512,114.616,512,256.005C512,397.384,397.384,512,256.005,512
	C114.616,512,0,397.384,0,256.005C0,114.616,114.616,0,256.005,0z"/>
<path style="fill:#ADD37F;" d="M2.735,281.216c53.342-68.277,101.722-127.578,153.824-171.503
	c12.894-10.872,36.024-11.585,50.871-3.917c99.153,51.213,140.539,104.35,167.87,157.955
	C251.111,269.572,126.923,275.394,2.735,281.216z"/>
<path style="fill:#7CB142;" d="M193.364,101.351c5.069,0.791,9.895,2.286,14.066,4.444c99.153,51.213,140.539,104.35,167.87,157.955
	l-164.676,7.726c0,0-11.34-17.123-38.563-43.203c-27.223-26.07,53.137-23.267,28.288-59.213
	C175.489,133.116,193.364,101.351,193.364,101.351z"/>
<path style="fill:#ADD37F;" d="M170.702,292.185c31.872-67.007,71.247-134.913,174.737-210.585
	c13.626-9.973,31.423-10.354,42.451-0.908c82.919,71.022,113.229,148.276,118.562,228.499c-1.211,5.753-2.608,11.438-4.2,17.035
	L170.702,292.185z"/>
<path style="fill:#7CB142;" d="M367.641,73.864c7.531-0.156,14.74,2.1,20.249,6.828c82.919,71.022,113.229,148.276,118.562,228.499
	c-1.211,5.753-2.608,11.438-4.2,17.035l-174.727-17.934c-34.998-42.392,0.469-64.458,8.947-64.458
	c9.739,0,70.914-52.863,28.913-75.163S367.641,73.864,367.641,73.864z"/>
<path style="fill:#FFDF81;" d="M1.289,281.811c39.989-7.775,255.175-45.254,509.959-6.027C501.148,407.924,390.732,512,256.005,512
	C123.329,512,14.232,411.079,1.289,281.811z"/>
<g>
	<polygon style="fill:#FDF9E2;" points="44.102,253.055 47.022,249.988 50.197,251.502 51.877,283.355 45.792,284.918 	"/>
	<polygon style="fill:#FDF9E2;" points="31.14,256.366 34.06,253.299 37.235,254.803 38.915,286.666 32.83,288.219 	"/>
	<polygon style="fill:#FDF9E2;" points="17.963,259.726 20.884,256.659 24.048,258.173 25.738,290.036 19.643,291.589 	"/>
	<polygon style="fill:#FDF9E2;" points="4.776,263.096 7.697,260.029 10.872,261.543 12.552,293.396 6.457,294.949 	"/>
	<polygon style="fill:#FDF9E2;" points="54.964,258.857 0.557,272.747 0.43,270.735 54.856,256.835 	"/>
	<polygon style="fill:#FDF9E2;" points="55.677,272.288 1.768,286.051 1.543,284.068 55.569,270.276 	"/>
	<g>
		<polygon style="fill:#FDF9E2;" points="283.423,230.159 286.412,227.991 289.469,230.501 289.929,263.096 283.892,262.754 		"/>
		<polygon style="fill:#FDF9E2;" points="270.578,229.427 273.558,227.258 276.615,229.769 277.084,262.364 271.038,262.022 		"/>
		<polygon style="fill:#FDF9E2;" points="257.509,228.684 260.498,226.516 263.546,229.026 264.014,261.621 257.968,261.28 		"/>
		<polygon style="fill:#FDF9E2;" points="244.44,227.942 247.429,225.773 250.476,228.284 250.945,260.879 244.899,260.537 		"/>
		<polygon style="fill:#FDF9E2;" points="231.146,227.19 234.135,225.021 237.192,227.532 237.651,260.127 231.615,259.785 		"/>
		<polygon style="fill:#FDF9E2;" points="293.875,239.4 233.363,235.961 233.324,233.9 293.845,237.339 		"/>
		<polygon style="fill:#FDF9E2;" points="294.07,253.143 233.549,249.705 233.519,247.644 294.051,251.082 		"/>
	</g>
	<polygon style="fill:#FDF9E2;" points="503.062,247.732 506.051,245.778 509.109,248.513 509.568,281.147 503.531,280.366 	"/>
	<polygon style="fill:#FDF9E2;" points="489.993,246.042 492.982,244.088 496.039,246.823 496.498,279.457 490.462,278.676 	"/>
	<polygon style="fill:#FDF9E2;" points="476.924,244.352 479.913,242.398 482.97,245.133 483.429,277.758 477.393,276.986 	"/>
	<polygon style="fill:#FDF9E2;" points="463.64,242.633 466.628,240.679 469.676,243.414 470.145,276.039 464.099,275.257 	"/>
	<path style="fill:#FDF9E2;" d="M511.98,257.538l-46.133-5.968l-0.029-2.071L512,255.477v0.527
		C512,256.513,511.98,257.021,511.98,257.538z"/>
	<path style="fill:#FDF9E2;" d="M511.541,271.213l-45.499-5.89l-0.029-2.061l45.655,5.91
		C511.639,269.856,511.58,270.53,511.541,271.213z"/>
</g>
<g>
	<polygon style="fill:#F7F4C4;" points="407.172,276.674 407.172,206.423 339.784,146.605 272.698,206.423 272.698,276.967 	"/>
	<path style="fill:#EBEDB1;fill-opacity:0.902;" d="M324.878,183.352c15.912,2.09,31.208,6.339,46.065,12.571
		c12.874,5.392,25.103,12.268,36.473,20.415v-9.914l-69.449-59.818l-53.196,46.006C297.772,186.976,309.611,181.349,324.878,183.352
		z"/>
	<polygon style="fill:#674B46;" points="339.959,142.972 261.153,206.423 273.401,206.423 339.959,153.55 	"/>
	<polygon style="fill:#442D2A;" points="339.959,142.972 418.776,206.423 406.527,206.423 339.959,153.55 	"/>
	<polygon style="fill:#F4ED93;" points="323.803,258.652 284.273,258.652 284.273,217.471 323.803,217.471 	"/>
	<path style="fill:#D1796E;" d="M301.875,216.641c0,0,0.391,7.277-3.878,14.183c-4.269,6.906-8.283,9.123-8.283,9.123
		s4.083,4.278,5.118,8.566c1.035,4.288,2.276,10.969,2.276,10.969h-11.8l-1.035-42.842H301.875z"/>
	<g>
		<path style="fill:#BA645B;" d="M295.242,225.988c0,0-4.835,13.401-6.632,13.265S295.242,225.988,295.242,225.988z"/>
		<path style="fill:#BA645B;" d="M288.356,225.988c0,0-0.088,13.196-0.987,13.265C286.471,239.321,288.356,225.988,288.356,225.988z
			"/>
		<path style="fill:#BA645B;" d="M288.932,255.731c0,0-2.93-13.939-1.328-14.769C289.206,240.142,288.932,255.731,288.932,255.731z"
			/>
		<path style="fill:#BA645B;" d="M294.793,252.117c0,0-6.857-11.272-6.134-11.809C289.391,239.781,294.793,252.117,294.793,252.117z
			"/>
	</g>
	<path style="fill:#D1796E;" d="M306.358,216.641c0,0-0.391,7.277,3.888,14.183c4.269,6.906,8.273,9.123,8.273,9.123
		s-4.083,4.278-5.118,8.566c-1.035,4.288-2.286,10.969-2.286,10.969h11.809l1.035-42.842H306.358z"/>
	<g>
		<path style="fill:#BA645B;" d="M312.99,225.988c0,0,4.835,13.401,6.632,13.265C321.42,239.116,312.99,225.988,312.99,225.988z"/>
		<path style="fill:#BA645B;" d="M319.867,225.988c0,0,0.107,13.196,0.996,13.265C321.762,239.321,319.867,225.988,319.867,225.988z
			"/>
		<path style="fill:#BA645B;" d="M319.3,255.731c0,0,2.93-13.939,1.328-14.769C319.027,240.142,319.3,255.731,319.3,255.731z"/>
		<path style="fill:#BA645B;" d="M313.44,252.117c0,0,6.867-11.272,6.134-11.809C318.841,239.781,313.44,252.117,313.44,252.117z"/>
	</g>
	<path style="fill:#674B46;" d="M282.612,215.81v44.492h42.851V215.81H282.612z M322.143,256.991L322.143,256.991h-17.221v-18.93
		h-2.911v18.93h-16.078v-18.93h16.078v-2.911h-16.078v-16.029h36.209V256.991z"/>
	<g>
		<path style="fill:#442D2A;" d="M282.905,215.81c1.309,0.947,2.315,2.188,3.028,3.595v-0.283h16.078v18.94h1.114h1.797h17.475
			l0.068-2.921l-17.543,0.01v-16.029h17.221v37.87h-0.82c1.582,0.781,2.842,1.934,3.77,3.311h0.371V215.81H282.905z"/>
		<polygon style="fill:#442D2A;" points="374.049,276.967 339.93,276.967 339.93,214.062 374.049,214.062 		"/>
	</g>
	<polygon style="fill:#674B46;" points="371.568,276.967 342.245,276.967 342.245,216.641 371.568,216.641 	"/>
	<g>
		<polygon style="fill:#442D2A;" points="350.323,248.337 344.882,248.337 344.882,219.014 350.323,219.014 		"/>
		<polygon style="fill:#442D2A;" points="356.447,248.337 350.997,248.337 350.997,219.014 356.447,219.014 		"/>
		<polygon style="fill:#442D2A;" points="362.582,248.337 357.141,248.337 357.141,219.014 362.582,219.014 		"/>
		<polygon style="fill:#442D2A;" points="368.716,248.337 363.265,248.337 363.265,219.014 368.716,219.014 		"/>
		<polygon style="fill:#442D2A;" points="350.323,274.046 344.882,274.046 344.882,252.117 350.323,252.117 		"/>
		<polygon style="fill:#442D2A;" points="356.447,274.046 350.997,274.046 350.997,252.117 356.447,252.117 		"/>
		<polygon style="fill:#442D2A;" points="362.582,274.046 357.141,274.046 357.141,252.117 362.582,252.117 		"/>
		<polygon style="fill:#442D2A;" points="368.716,274.046 363.265,274.046 363.265,252.117 368.716,252.117 		"/>
	</g>
	<g>
		<path style="fill:#E87464;" d="M386.806,241.871c0,0.723-0.586,1.309-1.309,1.309c-0.723,0-1.309-0.586-1.309-1.309
			c0-0.713,0.586-1.309,1.309-1.309C386.22,240.562,386.806,241.158,386.806,241.871z"/>
		<path style="fill:#E87464;" d="M394.894,240.103c0,0.723-0.586,1.309-1.309,1.309c-0.723,0-1.309-0.586-1.309-1.309
			c0-0.723,0.586-1.309,1.309-1.309C394.308,238.794,394.894,239.38,394.894,240.103z"/>
		<path style="fill:#E87464;" d="M392.071,242.926c0,0.723-0.586,1.309-1.309,1.309c-0.723,0-1.309-0.586-1.309-1.309
			s0.586-1.309,1.309-1.309C391.485,241.617,392.071,242.203,392.071,242.926z"/>
		<path style="fill:#E87464;" d="M399.484,243.277c0,0.723-0.586,1.309-1.309,1.309s-1.309-0.586-1.309-1.309
			c0-0.713,0.586-1.299,1.309-1.299S399.484,242.564,399.484,243.277z"/>
		<path style="fill:#E87464;" d="M383.524,242.926c0,0.723-0.586,1.309-1.309,1.309c-0.723,0-1.309-0.586-1.309-1.309
			s0.586-1.309,1.309-1.309C382.938,241.617,383.524,242.203,383.524,242.926z"/>
	</g>
	<g>
		<path style="fill:#E8503F;" d="M388.32,240.279c0,0.41-0.332,0.752-0.752,0.752s-0.762-0.342-0.762-0.752
			c0-0.42,0.342-0.762,0.762-0.762S388.32,239.859,388.32,240.279z"/>
		<path style="fill:#E8503F;" d="M388.232,243.824c0,0.42-0.332,0.762-0.752,0.762s-0.762-0.342-0.762-0.762
			c0-0.41,0.342-0.752,0.762-0.752S388.232,243.414,388.232,243.824z"/>
		<path style="fill:#E8503F;" d="M395.655,242.164c0,0.42-0.342,0.762-0.762,0.762s-0.762-0.342-0.762-0.762
			c0-0.41,0.342-0.752,0.762-0.752S395.655,241.754,395.655,242.164z"/>
		<path style="fill:#E8503F;" d="M401.35,243.678c0,0.42-0.332,0.762-0.752,0.762s-0.762-0.342-0.762-0.762
			c0-0.41,0.342-0.752,0.762-0.752S401.35,243.268,401.35,243.678z"/>
	</g>
	<g>
		<polygon style="fill:#82BF72;" points="382.42,245.231 382.215,243.502 382.059,245.231 		"/>
		<polygon style="fill:#82BF72;" points="385.409,241.978 385.136,244.938 385.497,244.938 		"/>
		<polygon style="fill:#82BF72;" points="387.48,243.824 387.568,245.114 387.265,245.114 		"/>
		<polygon style="fill:#82BF72;" points="387.568,240.279 387.704,242.818 387.48,242.818 		"/>
		<polygon style="fill:#82BF72;" points="390.762,242.818 390.566,244.938 390.938,244.938 		"/>
		<polygon style="fill:#82BF72;" points="393.585,240.103 393.135,244.938 393.79,244.938 		"/>
		<polygon style="fill:#82BF72;" points="395.157,245.114 394.669,245.114 394.913,242.525 		"/>
		<polygon style="fill:#82BF72;" points="398.176,243.18 398.049,245.114 398.263,245.114 		"/>
		<polygon style="fill:#82BF72;" points="400.598,243.678 400.813,245.114 400.598,245.114 		"/>
	</g>
	<g>
		<polygon style="fill:#442D2A;" points="403.636,246.247 379.48,246.247 379.48,244.938 403.636,244.938 		"/>
		<polygon style="fill:#442D2A;" points="402.991,253.123 380.125,253.123 380.125,245.758 402.991,245.758 		"/>
	</g>
	<polygon style="fill:#674B46;" points="401.575,252.059 381.551,252.059 381.551,246.813 401.575,246.813 	"/>
	<g>
		<polygon style="fill:#442D2A;" points="384.208,252.821 383.221,252.821 383.221,245.758 384.208,245.758 		"/>
		<polygon style="fill:#442D2A;" points="386.181,252.821 385.194,252.821 385.194,245.758 386.181,245.758 		"/>
		<polygon style="fill:#442D2A;" points="388.164,252.821 387.177,252.821 387.177,245.758 388.164,245.758 		"/>
		<polygon style="fill:#442D2A;" points="390.137,252.821 389.15,252.821 389.15,245.758 390.137,245.758 		"/>
		<polygon style="fill:#442D2A;" points="392.12,252.821 391.123,252.821 391.123,245.758 392.12,245.758 		"/>
		<polygon style="fill:#442D2A;" points="394.093,252.821 393.106,252.821 393.106,245.758 394.093,245.758 		"/>
		<polygon style="fill:#442D2A;" points="396.076,252.821 395.079,252.821 395.079,245.758 396.076,245.758 		"/>
		<polygon style="fill:#442D2A;" points="398.049,252.821 397.062,252.821 397.062,245.758 398.049,245.758 		"/>
		<polygon style="fill:#442D2A;" points="400.022,252.821 399.035,252.821 399.035,245.758 400.022,245.758 		"/>
	</g>
	<g>
		<polygon style="fill:#FDF9E2;" points="64.145,247.751 61.156,246.159 58.109,249.265 57.64,281.948 63.676,280.434 		"/>
		<polygon style="fill:#FDF9E2;" points="77,244.537 74.011,242.945 70.953,246.042 70.494,278.735 76.531,277.221 		"/>
		<polygon style="fill:#FDF9E2;" points="90.059,241.265 87.08,239.673 84.023,242.779 83.564,275.462 89.6,273.948 		"/>
		<polygon style="fill:#FDF9E2;" points="103.129,237.993 100.149,236.401 97.092,239.507 96.633,272.19 102.67,270.676 		"/>
		<polygon style="fill:#FDF9E2;" points="116.423,234.672 113.434,233.08 110.386,236.186 109.917,268.869 115.964,267.355 		"/>
		<polygon style="fill:#FDF9E2;" points="53.694,259.013 114.215,243.873 114.244,241.802 53.723,256.943 		"/>
		<polygon style="fill:#FDF9E2;" points="53.498,272.796 114.02,257.656 114.049,255.585 53.528,270.735 		"/>
		<polygon style="fill:#FDF9E2;" points="164.988,231.585 167.909,229.085 171.074,231.204 172.764,263.389 166.668,263.77 		"/>
		<polygon style="fill:#FDF9E2;" points="152.026,232.386 154.947,229.886 158.112,232.005 159.802,264.19 153.706,264.571 		"/>
		<polygon style="fill:#FDF9E2;" points="138.84,233.197 141.77,230.696 144.935,232.826 146.615,265.011 140.53,265.382 		"/>
		<polygon style="fill:#FDF9E2;" points="125.653,234.018 128.584,231.517 131.748,233.637 133.438,265.822 127.343,266.203 		"/>
		<polygon style="fill:#FDF9E2;" points="112.252,234.848 115.182,232.347 118.347,234.467 120.027,266.652 113.942,267.033 		"/>
		<polygon style="fill:#FDF9E2;" points="175.85,239.488 114.811,243.268 114.704,241.226 175.743,237.446 		"/>
		<polygon style="fill:#FDF9E2;" points="176.563,253.055 115.514,256.835 115.407,254.803 176.456,251.023 		"/>
		<polygon style="fill:#FDF9E2;" points="185.022,230.159 182.043,227.991 178.986,230.501 178.527,263.096 184.563,262.754 		"/>
		<polygon style="fill:#FDF9E2;" points="197.877,229.427 194.888,227.258 191.84,229.769 191.371,262.364 197.417,262.022 		"/>
		<polygon style="fill:#FDF9E2;" points="210.946,228.684 207.957,226.516 204.909,229.026 204.441,261.621 210.477,261.28 		"/>
		<polygon style="fill:#FDF9E2;" points="224.015,227.942 221.026,225.773 217.979,228.284 217.51,260.879 223.556,260.537 		"/>
		<polygon style="fill:#FDF9E2;" points="237.309,227.19 234.32,225.021 231.263,227.532 230.804,260.127 236.84,259.785 		"/>
		<polygon style="fill:#FDF9E2;" points="174.58,239.4 235.102,235.961 235.131,233.9 174.6,237.339 		"/>
		<polygon style="fill:#FDF9E2;" points="174.375,253.143 234.897,249.705 234.926,247.644 174.404,251.082 		"/>
		<polygon style="fill:#FDF9E2;" points="411.352,237.192 408.373,234.545 405.316,236.567 404.847,269.084 410.893,269.709 		"/>
		<polygon style="fill:#FDF9E2;" points="424.207,238.53 421.218,235.883 418.17,237.905 417.701,270.422 423.738,271.047 		"/>
		<polygon style="fill:#FDF9E2;" points="437.276,239.888 434.287,237.241 431.24,239.263 430.771,271.78 436.817,272.415 		"/>
		<polygon style="fill:#FDF9E2;" points="450.346,241.246 447.357,238.599 444.309,240.621 443.84,273.138 449.886,273.773 		"/>
		<polygon style="fill:#FDF9E2;" points="463.64,242.633 460.651,239.986 457.593,242.008 457.134,274.525 463.171,275.15 		"/>
		<polygon style="fill:#FDF9E2;" points="400.901,244.752 461.422,251.053 461.452,248.992 400.93,242.701 		"/>
		<polygon style="fill:#FDF9E2;" points="400.705,258.466 461.227,264.767 461.256,262.706 400.735,256.415 		"/>
	</g>
</g>
<path style="fill:#FFFFFF;" d="M193.882,42.51c3.927,0,7.638,0.84,10.92,2.315c3.555-3.106,8.42-5.021,13.792-5.021
	c9.299,0,17.094,5.743,19.174,13.48c4.649,1.25,8.381,4.386,10.08,8.41c0.557-0.059,1.123-0.078,1.7-0.078
	c8.586,0,15.56,6.222,15.56,13.9s-6.974,13.9-15.56,13.9c-2.676,0-5.196-0.596-7.394-1.661c-1.885,5.773-7.863,9.992-14.935,9.992
	c-4.327,0-8.234-1.573-11.057-4.122c-2.823,2.549-6.73,4.122-11.057,4.122c-4.102,0-7.844-1.426-10.627-3.751
	c-2.842,2.784-6.935,4.523-11.477,4.523c-4.259,0-8.107-1.524-10.92-3.995c-1.28,0.254-2.618,0.381-3.985,0.381
	c-10.237,0-18.539-7.414-18.539-16.556c0-9.152,8.303-16.566,18.539-16.566c0.557,0,1.114,0.029,1.651,0.068
	C171.064,50.978,181.369,42.51,193.882,42.51z"/>
<path style="fill:#DFDFDF;" d="M265.079,76.267c-0.44,7.326-7.228,13.147-15.531,13.147c-2.676,0-5.196-0.596-7.394-1.661
	c-1.885,5.773-7.863,9.992-14.935,9.992c-4.327,0-8.234-1.573-11.057-4.122c-2.823,2.549-6.73,4.122-11.057,4.122
	c-4.102,0-7.844-1.426-10.627-3.751c-2.842,2.784-6.935,4.523-11.477,4.523c-4.259,0-8.107-1.524-10.92-3.995
	c-1.28,0.254-2.618,0.381-3.985,0.381c-10.237,0-18.539-7.414-18.539-16.556c0-0.987,0.098-1.963,0.283-2.901
	c-0.02,0.361-0.039,0.723-0.039,1.084c0,9.152,8.303,16.566,18.539,16.566c1.368,0,2.696-0.137,3.985-0.391
	c2.813,2.481,6.662,4.005,10.92,4.005c4.542,0,8.635-1.748,11.477-4.523c2.784,2.325,6.515,3.741,10.627,3.741
	c4.327,0,8.234-1.573,11.057-4.112c2.823,2.54,6.73,4.112,11.057,4.112c7.072,0,13.04-4.22,14.935-9.992
	c2.198,1.065,4.718,1.67,7.384,1.67C257.402,87.608,263.731,82.724,265.079,76.267z M207.498,69.684
	c-19.516-1.807-20.884,16.166-5.734,19.448c13.636,2.95,18.881-10.139,7.463-14.115c-10.129-3.526-15.677,5.929-7.844,9.211
	c5.49,2.295,9.592-1.905,6.31-4.19c-1.739-1.201-3.087,0.137-3.976-1.201c3.243-3.575,11.321,2.862,5.372,6.496
	c-7.199,4.396-18.832-5.021-10.334-10.666c8.234-5.47,23.384,3.585,16.81,11.936c-6.818,8.654-27.145,2.335-25.562-8.83
	c1.836-12.981,28.258-12.474,34.09,1.963c0.615,1.534,1.407,5.284-0.088,6.417c-0.459-0.098-0.547-3.077-0.694-3.78
	C222.081,76.023,216.191,71.051,207.498,69.684z M185.423,48.146c12.835-4.698,21.274,8.967,12.093,14.066
	c-8.264,4.591-17.367-4.64-11.067-9.651c5.577-4.435,13.382,1.934,9.289,5.802c-2.862,2.706-7.472,0.147-6.134-2.178
	c0.713-1.221,2.208-0.41,2.266-1.602c-3.751-2.217-6.691,4.122-1.035,5.929c6.847,2.188,11.018-7.062,2.755-9.983
	c-8.01-2.842-14.788,6.72-6.73,12.053c8.351,5.548,19.858-2.774,14.115-11.135c-6.681-9.719-24.869-4.874-22.915,7.277
	c0.205,1.289,1.221,4.317,2.735,4.943c0.283-0.156-0.899-2.471-1.094-3.038C177.921,55.511,179.943,50.675,185.423,48.146z
	 M155.426,69.244c-10.745,12.19,4.747,25.973,14.779,17.856c9.025-7.306-0.273-20.278-9.182-15.238
	c-7.892,4.474-2.002,15.062,4.61,11.995c4.62-2.149,2.764-7.98-0.821-7.345c-1.895,0.342-1.319,2.227-2.94,1.885
	c-1.69-4.796,7.863-5.773,8.342,0.928c0.586,8.117-13.304,9.426-14.398-0.479c-1.065-9.592,14.144-13.587,18.569-3.077
	c4.581,10.891-10.598,20.405-19.868,11.34c-10.793-10.539,2.002-28.424,17.699-22.134c1.651,0.664,5.392,2.794,5.704,4.63
	c-0.303,0.254-3.008-1.807-3.712-2.217C167.938,63.706,160.72,64.223,155.426,69.244z M228.313,45.186
	c-13.245-4.835-21.939,9.25-12.474,14.515c8.518,4.728,17.904-4.796,11.419-9.953c-5.753-4.571-13.802,1.993-9.582,5.978
	c2.95,2.784,7.697,0.147,6.32-2.237c-0.733-1.27-2.276-0.43-2.335-1.661c3.868-2.286,6.896,4.259,1.074,6.115
	c-7.062,2.256-11.37-7.277-2.842-10.295c8.254-2.93,15.248,6.925,6.935,12.434c-8.615,5.714-20.483-2.862-14.554-11.487
	c6.896-10.022,25.641-5.021,23.628,7.511c-0.215,1.319-1.26,4.444-2.823,5.089c-0.283-0.156,0.928-2.549,1.133-3.135
	C236.049,52.785,233.959,47.804,228.313,45.186z M257.646,67.857c9.084,9.504-4.015,20.249-12.493,13.929
	c-7.638-5.704,0.225-15.814,7.756-11.878c6.671,3.487,1.7,11.741-3.888,9.348c-3.917-1.67-2.344-6.232,0.684-5.724
	c1.602,0.264,1.114,1.729,2.491,1.465c1.426-3.741-6.652-4.503-7.062,0.723c-0.488,6.33,11.253,7.345,12.18-0.381
	c0.899-7.472-11.966-10.588-15.697-2.393c-3.878,8.488,8.957,15.912,16.801,8.84c9.123-8.215-1.7-22.163-14.964-17.26
	c-1.407,0.518-4.562,2.188-4.835,3.624c0.264,0.195,2.549-1.416,3.145-1.739C247.067,63.549,253.162,63.95,257.646,67.857z"/>
<path style="fill:#FFB100;" d="M261.524,287.115c5.665,0,10.256,1.387,10.256,3.087c0,1.7-4.591,3.077-10.256,3.077
	c-5.675,0-10.266-1.377-10.266-3.077C251.258,288.502,255.849,287.115,261.524,287.115z M355.334,492.015
	c-6.33,2.667-12.796,5.079-19.379,7.238h-0.205c-10.95,0-19.829-3.829-19.829-8.547c0-4.718,8.879-8.547,19.829-8.547
	c10.95,0,19.819,3.829,19.819,8.547C355.568,491.146,355.49,491.585,355.334,492.015z M75.202,366.157
	c3.126,0,5.646,2.764,5.646,6.163s-2.52,6.164-5.646,6.164c-3.116,0-5.646-2.764-5.646-6.164S72.087,366.157,75.202,366.157z
	 M238.423,364.105c1.983,0,3.595-0.225,3.595-0.508s-1.612-0.518-3.595-0.518c-1.983,0-3.595,0.234-3.595,0.518
	S236.44,364.105,238.423,364.105z M294.363,367.192c6.242,0,11.301,3.438,11.301,7.697c0,4.249-5.06,7.697-11.301,7.697
	c-6.232,0-11.282-3.448-11.282-7.697C283.081,370.63,288.131,367.192,294.363,367.192z M362.63,386.689
	c7.091,0,12.835,2.989,12.835,6.671c0,3.692-5.743,6.681-12.835,6.681c-7.082,0-12.825-2.989-12.825-6.681
	C349.805,389.678,355.549,386.689,362.63,386.689z M402.669,423.65c3.116,0,5.646,1.377,5.646,3.077c0,1.7-2.53,3.077-5.646,3.077
	s-5.646-1.377-5.646-3.077C397.023,425.027,399.553,423.65,402.669,423.65z M334.919,370.269c3.682,0,6.671,1.602,6.671,3.595
	c0,1.983-2.989,3.595-6.671,3.595c-3.692,0-6.671-1.612-6.671-3.595C328.248,371.871,331.227,370.269,334.919,370.269z
	 M339.022,459.576c0.283,0,0.508,2.755,0.508,6.154c0,3.409-0.225,6.164-0.508,6.164s-0.518-2.755-0.518-6.164
	C338.504,462.331,338.738,459.576,339.022,459.576z M437.052,367.192c1.7,0,3.087,2.979,3.087,6.671
	c0,3.682-1.387,6.671-3.087,6.671c-1.7,0-3.077-2.989-3.077-6.671C433.975,370.171,435.352,367.192,437.052,367.192z
	 M479.659,306.622c5.382,0,9.748,2.071,9.748,4.62s-4.366,4.62-9.748,4.62c-5.392,0-9.758-2.071-9.758-4.62
	S474.267,306.622,479.659,306.622z M359.036,300.468c10.207,0,18.481,3.438,18.481,7.697c0,4.249-8.273,7.697-18.481,7.697
	c-10.198,0-18.471-3.448-18.471-7.697C340.565,303.906,348.838,300.468,359.036,300.468z M244.586,389.775
	c5.949,0,10.774,2.295,10.774,5.128s-4.825,5.138-10.774,5.138c-5.958,0-10.784-2.305-10.784-5.138S238.628,389.775,244.586,389.775
	z M193.256,448.285c3.116,0,5.646,1.377,5.646,3.077c0,1.7-2.53,3.077-5.646,3.077s-5.646-1.377-5.646-3.077
	C187.611,449.662,190.14,448.285,193.256,448.285z M97.786,374.371c2.559,0,4.62,1.153,4.62,2.569c0,1.416-2.061,2.569-4.62,2.569
	c-2.549,0-4.62-1.153-4.62-2.569C93.166,375.524,95.236,374.371,97.786,374.371z M38.768,307.647c6.232,0,11.282,2.755,11.282,6.164
	c0,3.399-5.05,6.154-11.282,6.154c-6.242,0-11.301-2.755-11.301-6.154C27.467,310.402,32.527,307.647,38.768,307.647z
	 M143.47,288.141c3.399,0,6.163,1.387,6.163,3.087c0,1.7-2.764,3.077-6.163,3.077c-3.399,0-6.163-1.377-6.163-3.077
	C137.306,289.528,140.071,288.141,143.47,288.141z M354.933,342.548c5.099,0,9.24,2.989,9.24,6.671c0,3.692-4.142,6.681-9.24,6.681
	c-5.099,0-9.24-2.989-9.24-6.681C345.693,345.537,349.835,342.548,354.933,342.548z M416.012,315.862
	c8.791,0,15.912,2.295,15.912,5.128c0,2.842-7.121,5.138-15.912,5.138s-15.912-2.295-15.912-5.138
	C400.1,318.158,407.221,315.862,416.012,315.862z M248.689,454.438c3.116,0,5.646,4.601,5.646,10.266
	c0,5.675-2.53,10.266-5.646,10.266s-5.646-4.591-5.646-10.266C243.043,459.039,245.573,454.438,248.689,454.438z M310.275,417.487
	c1.993,0,3.595,5.284,3.595,11.809c0,6.515-1.602,11.8-3.595,11.8c-1.983,0-3.585-5.284-3.585-11.8
	C306.69,422.771,308.292,417.487,310.275,417.487z M381.619,394.903c3.409,0,6.163,2.295,6.163,5.138
	c0,2.833-2.755,5.128-6.163,5.128c-3.399,0-6.154-2.295-6.154-5.128C375.465,397.199,378.22,394.903,381.619,394.903z
	 M418.581,332.282c6.798,0,12.317,4.366,12.317,9.758c0,5.382-5.519,9.748-12.317,9.748c-6.808,0-12.327-4.366-12.327-9.748
	C406.254,336.648,411.772,332.282,418.581,332.282z M179.914,330.231c3.682,0,6.671,2.305,6.671,5.138s-2.989,5.128-6.671,5.128
	c-3.692,0-6.671-2.295-6.671-5.128S176.221,330.231,179.914,330.231z M187.611,385.663c4.532,0,8.215-0.225,8.215-0.508
	s-3.682-0.518-8.215-0.518s-8.215,0.234-8.215,0.518S183.078,385.663,187.611,385.663z M127.558,415.435
	c7.658,0,13.861,2.989,13.861,6.671c0,3.682-6.203,6.671-13.861,6.671c-7.648,0-13.861-2.989-13.861-6.671
	C113.697,418.424,119.91,415.435,127.558,415.435z M278.969,323.051c8.508,0,15.394,5.05,15.394,11.292
	c0,6.232-6.886,11.292-15.394,11.292c-8.498,0-15.394-5.06-15.394-11.292C263.575,328.101,270.471,323.051,278.969,323.051z
	 M207.117,300.468c7.365,0,13.343,3.214,13.343,7.179c0,3.976-5.978,7.189-13.343,7.189c-7.375,0-13.343-3.214-13.343-7.189
	C193.774,303.682,199.742,300.468,207.117,300.468z M90.089,322.016c14.173,0,25.66,4.601,25.66,10.266
	c0,5.675-11.487,10.266-25.66,10.266s-25.66-4.591-25.66-10.266C64.429,326.616,75.916,322.016,90.089,322.016z"/>
<path style="fill:#FFE900;" d="M274.574,39.853c0.195-0.547,0.527-1.123,1.026-1.729c3.975-4.776,10.901-2.569,10.901-2.569
	s-3.995,2.374-5.646,4.259c-0.85,0.957-0.918,1.993-0.928,2.901c0.332-0.469,0.801-0.947,1.436-1.397
	c5.079-3.595,11.194,0.332,11.194,0.332s-4.474,1.26-6.554,2.657c-1.065,0.713-1.407,1.68-1.651,2.569
	c0.44-0.381,1.016-0.713,1.758-0.987c5.822-2.159,10.715,3.223,10.715,3.223s-4.64,0.059-7.013,0.869
	c-1.221,0.41-1.788,1.26-2.256,2.051c0.518-0.254,1.162-0.43,1.944-0.498c6.193-0.576,9.524,5.89,9.524,5.89
	s-4.503-1.153-7.004-0.987c-1.28,0.088-2.051,0.762-2.706,1.407c0.567-0.107,1.231-0.107,2.012,0.02
	c6.124,1.055,7.668,8.156,7.668,8.156s-4.054-2.276-6.515-2.764c-1.25-0.254-2.178,0.205-2.969,0.654
	c0.567,0.039,1.211,0.215,1.934,0.537c5.636,2.598,5.294,9.866,5.294,9.866s-3.321-3.243-5.568-4.356
	c-1.153-0.567-2.168-0.361-3.048-0.137c0.547,0.195,1.123,0.518,1.729,1.026c4.776,3.966,2.569,10.891,2.569,10.891
	s-2.374-3.995-4.259-5.646c-0.967-0.84-1.993-0.908-2.911-0.918c0.479,0.322,0.947,0.791,1.407,1.436
	c3.595,5.07-0.342,11.184-0.342,11.184s-1.25-4.464-2.647-6.554c-0.713-1.065-1.69-1.397-2.569-1.641
	c0.381,0.44,0.713,1.016,0.987,1.748c2.149,5.831-3.223,10.725-3.223,10.725s-0.059-4.649-0.869-7.023
	c-0.41-1.211-1.26-1.788-2.051-2.247c0.254,0.518,0.42,1.162,0.498,1.944c0.567,6.183-5.89,9.514-5.89,9.514
	s1.143-4.493,0.987-7.004c-0.088-1.27-0.762-2.051-1.407-2.706c0.107,0.567,0.107,1.241-0.02,2.012
	c-1.055,6.124-8.156,7.678-8.156,7.678s2.276-4.054,2.764-6.515c0.244-1.26-0.205-2.188-0.654-2.979
	c-0.049,0.576-0.215,1.221-0.547,1.934c-2.598,5.646-9.856,5.304-9.856,5.304s3.243-3.321,4.356-5.577
	c0.557-1.153,0.361-2.159,0.137-3.048c-0.195,0.547-0.527,1.123-1.026,1.729c-3.976,4.776-10.901,2.569-10.901,2.569
	s3.995-2.374,5.656-4.259c0.84-0.957,0.908-1.993,0.918-2.901c-0.322,0.479-0.791,0.947-1.436,1.407
	c-5.069,3.585-11.194-0.342-11.194-0.342s4.474-1.26,6.564-2.657c1.065-0.713,1.397-1.68,1.641-2.559
	c-0.44,0.371-1.016,0.703-1.748,0.977c-5.831,2.159-10.725-3.223-10.725-3.223s4.64-0.059,7.023-0.86
	c1.211-0.41,1.788-1.27,2.247-2.051c-0.518,0.244-1.162,0.42-1.944,0.488c-6.183,0.576-9.524-5.88-9.524-5.88
	s4.503,1.143,7.004,0.977c1.28-0.088,2.061-0.762,2.706-1.397c-0.567,0.098-1.231,0.107-2.002-0.029
	c-6.124-1.045-7.678-8.146-7.678-8.146s4.054,2.266,6.515,2.755c1.25,0.254,2.178-0.205,2.979-0.645
	c-0.576-0.049-1.221-0.215-1.934-0.547c-5.646-2.598-5.304-9.856-5.304-9.856s3.321,3.243,5.577,4.347
	c1.143,0.567,2.159,0.371,3.038,0.137c-0.537-0.186-1.114-0.518-1.719-1.026c-4.786-3.966-2.579-10.891-2.579-10.891
	s2.374,3.995,4.259,5.646c0.967,0.85,1.993,0.918,2.911,0.928c-0.479-0.332-0.947-0.801-1.407-1.446
	c-3.585-5.069,0.342-11.184,0.342-11.184s1.26,4.464,2.647,6.554c0.713,1.065,1.69,1.397,2.569,1.651
	c-0.371-0.449-0.703-1.016-0.977-1.758c-2.159-5.831,3.214-10.725,3.214-10.725s0.059,4.649,0.869,7.023
	c0.41,1.211,1.27,1.788,2.051,2.256c-0.244-0.527-0.42-1.162-0.498-1.954c-0.567-6.183,5.89-9.514,5.89-9.514
	s-1.143,4.503-0.977,7.004c0.078,1.28,0.762,2.051,1.397,2.706c0-0.02-0.01-0.039-0.01-0.068c-0.01-0.039-0.02-0.088-0.02-0.137
	c-0.01-0.02-0.01-0.049-0.01-0.068c-0.01-0.049-0.01-0.107-0.02-0.166c0-0.01,0-0.029,0-0.049c-0.01-0.059-0.01-0.127-0.01-0.186
	c0-0.02,0-0.029-0.01-0.039c0-0.068,0-0.147,0-0.215v-0.029c0-0.068,0.01-0.147,0.01-0.225v-0.02c0-0.088,0.01-0.166,0.02-0.254
	v-0.01c0.01-0.078,0.02-0.176,0.029-0.264l0,0c0.02-0.088,0.029-0.186,0.049-0.283l0,0l0,0c0.01-0.088,0.029-0.186,0.049-0.283l0,0
	c0.02-0.088,0.039-0.186,0.068-0.273l0,0c0.02-0.088,0.039-0.186,0.068-0.273l0,0c0.02-0.088,0.049-0.176,0.078-0.264l0,0
	c0.02-0.088,0.049-0.176,0.078-0.254l0,0c0.039-0.088,0.068-0.176,0.098-0.254l0,0c0.029-0.078,0.068-0.166,0.098-0.244l0,0
	c0.039-0.078,0.068-0.166,0.107-0.244l0,0c0.039-0.078,0.078-0.147,0.117-0.225l0,0c0.039-0.078,0.078-0.156,0.117-0.234l0,0
	c0.166-0.293,0.342-0.576,0.537-0.84l0,0c0.049-0.068,0.098-0.137,0.147-0.195l0,0c0.049-0.068,0.098-0.137,0.147-0.195l0,0
	c0.254-0.313,0.527-0.606,0.811-0.879l0,0c0.117-0.107,0.225-0.205,0.342-0.313l0,0c0.059-0.049,0.117-0.098,0.176-0.147l0,0
	c0.059-0.049,0.117-0.098,0.176-0.147l0,0c0.117-0.088,0.234-0.186,0.352-0.264l0,0c0.303-0.225,0.606-0.42,0.899-0.606
	c0.059-0.029,0.117-0.068,0.176-0.098l0,0c0.068-0.039,0.127-0.068,0.176-0.107l0,0c0.068-0.029,0.127-0.068,0.186-0.098l0,0
	c0.049-0.029,0.107-0.059,0.166-0.088l0,0c0.059-0.029,0.117-0.068,0.176-0.088l0,0c0.059-0.029,0.117-0.059,0.166-0.088
	c0.117-0.059,0.225-0.107,0.332-0.156l0,0c0.059-0.029,0.117-0.049,0.166-0.068l0,0c0.049-0.029,0.107-0.049,0.156-0.078l0,0
	c0.049-0.02,0.107-0.039,0.156-0.059l0,0c0.049-0.02,0.098-0.039,0.147-0.059l0,0c0.049-0.029,0.098-0.039,0.147-0.059
	s0.098-0.039,0.137-0.059l0,0c0.049-0.02,0.098-0.029,0.137-0.049l0,0c0.049-0.02,0.088-0.029,0.137-0.049
	c0.088-0.029,0.166-0.059,0.244-0.078c0.039-0.02,0.078-0.029,0.107-0.039c0.039-0.01,0.078-0.029,0.107-0.029
	c0.039-0.02,0.068-0.029,0.107-0.039c0.029-0.01,0.059-0.02,0.088-0.029s0.059-0.01,0.088-0.02c0.02-0.01,0.049-0.02,0.078-0.02
	c0.02-0.01,0.039-0.02,0.068-0.02c0.02-0.01,0.039-0.01,0.059-0.02c0.02,0,0.039-0.01,0.049-0.01c0.02-0.01,0.039-0.01,0.049-0.01
	c0.01-0.01,0.02-0.01,0.039-0.01c0-0.01,0.01-0.01,0.02-0.01h0.02l0,0l0,0v0.01l-0.01,0.01l-0.02,0.02l-0.01,0.029l-0.02,0.029l0,0
	l-0.02,0.039l-0.02,0.039l-0.02,0.049l-0.029,0.049c-0.02,0.029-0.039,0.068-0.068,0.117l-0.029,0.059l-0.039,0.068
	c-0.01,0.029-0.02,0.049-0.039,0.078l0,0c-0.01,0.02-0.029,0.049-0.039,0.068l0,0c-0.01,0.029-0.029,0.059-0.039,0.088
	c-0.02,0.02-0.029,0.049-0.049,0.078c-0.01,0.029-0.029,0.059-0.049,0.088l0,0c-0.01,0.029-0.029,0.059-0.039,0.088
	c-0.02,0.039-0.039,0.068-0.049,0.098l0,0c-0.02,0.039-0.039,0.068-0.049,0.098l0,0c-0.02,0.039-0.039,0.068-0.059,0.098
	c-0.01,0.039-0.029,0.068-0.049,0.107l0,0c-0.02,0.039-0.039,0.068-0.059,0.107l0,0c-0.01,0.039-0.029,0.078-0.049,0.107l0,0
	c-0.02,0.039-0.039,0.078-0.059,0.117l0,0c-0.02,0.039-0.039,0.068-0.059,0.107l0,0c-0.02,0.039-0.039,0.078-0.059,0.117l0,0
	c-0.039,0.078-0.078,0.166-0.117,0.244l0,0c-0.01,0.039-0.039,0.078-0.049,0.117l0,0c-0.029,0.049-0.049,0.088-0.068,0.127l0,0
	c-0.078,0.176-0.156,0.342-0.234,0.518l0,0c-0.02,0.039-0.039,0.088-0.059,0.127l0,0c-0.02,0.049-0.039,0.088-0.059,0.137l0,0
	c-0.02,0.049-0.039,0.088-0.059,0.137l0,0c-0.039,0.088-0.078,0.176-0.117,0.264l0,0c-0.039,0.098-0.078,0.186-0.117,0.273l0,0
	c-0.02,0.049-0.039,0.088-0.059,0.137l0,0c-0.02,0.049-0.039,0.088-0.049,0.137l0,0c-0.039,0.088-0.078,0.186-0.107,0.273l0,0
	c-0.059,0.137-0.107,0.273-0.156,0.4l0,0c-0.049,0.137-0.098,0.273-0.137,0.4l0,0c-0.02,0.049-0.029,0.098-0.049,0.137l0,0
	c-0.01,0.039-0.029,0.088-0.039,0.127l0,0c-0.02,0.049-0.029,0.088-0.039,0.137l0,0c-0.01,0.039-0.029,0.078-0.039,0.127
	c-0.01,0.039-0.029,0.078-0.039,0.127l0,0c-0.01,0.039-0.02,0.078-0.029,0.117s-0.02,0.088-0.029,0.127
	c-0.02,0.039-0.029,0.078-0.029,0.117c-0.01,0.039-0.02,0.088-0.029,0.127c-0.01,0.029-0.02,0.068-0.029,0.107
	c0,0.039-0.01,0.078-0.02,0.117l0,0c0,0.039-0.01,0.068-0.01,0.107l-0.01,0.01c0,0.029-0.01,0.068-0.01,0.098v0.01
	c0,0.039,0,0.068-0.01,0.098v0.01c0,0.039,0,0.068,0,0.107h-0.01c0,0.039,0,0.068,0,0.098v0.01c0,0.039,0,0.068,0,0.098v0.01
	c0,0.029,0,0.059,0.01,0.088v0.01c0,0.039,0,0.068,0,0.098v0.01c0.01,0.029,0.01,0.059,0.01,0.088v0.01
	c0,0.029,0.01,0.059,0.01,0.088v0.01c0.01,0.029,0.01,0.059,0.02,0.088v0.01c0,0.029,0.01,0.059,0.01,0.088l0.01,0.01
	c0,0.029,0.01,0.049,0.01,0.078l0.01,0.01c0,0.029,0.01,0.059,0.02,0.088v0.01c0.01,0.02,0.01,0.049,0.02,0.078v0.01
	c0.01,0.029,0.02,0.059,0.029,0.078v0.01c0.01,0.029,0.02,0.059,0.029,0.078v0.01c0.01,0.029,0.02,0.059,0.029,0.078l0,0
	c0.137,0.4,0.322,0.752,0.508,1.084c0.049-0.576,0.215-1.221,0.547-1.934c2.598-5.646,9.856-5.304,9.856-5.304
	s-3.243,3.331-4.347,5.577C274.154,37.958,274.349,38.964,274.574,39.853z"/>
<path style="fill:#FFD500;" d="M266.369,38.602c12.698,0,23.003,10.295,23.003,23.003s-10.305,23.013-23.003,23.013
	c-12.708,0-23.013-10.305-23.013-23.013S253.661,38.602,266.369,38.602z"/>
<path style="fill:#FFE900;" d="M266.369,42.695c10.442,0,18.91,8.469,18.91,18.911c0,10.452-8.469,18.92-18.91,18.92
	c-10.452,0-18.92-8.469-18.92-18.92C247.448,51.164,255.917,42.695,266.369,42.695z"/>
<path style="fill:#FFFF00;" d="M266.369,47.11c8,0,14.495,6.486,14.495,14.495s-6.496,14.505-14.495,14.505
	c-8.01,0-14.505-6.496-14.505-14.505S258.359,47.11,266.369,47.11z"/>
<path style="fill:#FFFFFF;" d="M297.811,21.626c2.921,0,5.685,0.625,8.137,1.729c2.647-2.315,6.271-3.741,10.266-3.741
	c6.925,0,12.727,4.278,14.281,10.041c3.458,0.928,6.242,3.262,7.511,6.261c0.41-0.039,0.83-0.059,1.26-0.059
	c6.398,0,11.585,4.63,11.585,10.354c0,5.714-5.187,10.354-11.585,10.354c-1.993,0-3.868-0.449-5.509-1.241
	c-1.407,4.298-5.851,7.443-11.126,7.443c-3.214,0-6.124-1.172-8.225-3.067c-2.1,1.895-5.021,3.067-8.234,3.067
	c-3.057,0-5.841-1.065-7.922-2.794c-2.11,2.071-5.157,3.37-8.547,3.37c-3.175,0-6.037-1.133-8.137-2.979
	c-0.957,0.186-1.944,0.293-2.969,0.293c-7.619,0-13.802-5.529-13.802-12.337c0-6.818,6.183-12.337,13.802-12.337
	c0.42,0,0.83,0.02,1.241,0.049C280.815,27.936,288.483,21.626,297.811,21.626z"/>
<path style="fill:#DFDFDF;" d="M350.841,46.768c-0.332,5.46-5.382,9.797-11.575,9.797c-1.993,0-3.868-0.449-5.509-1.241
	c-1.407,4.298-5.851,7.443-11.126,7.443c-3.214,0-6.124-1.172-8.225-3.067c-2.1,1.895-5.021,3.067-8.234,3.067
	c-3.057,0-5.841-1.065-7.922-2.794c-2.11,2.071-5.157,3.37-8.547,3.37c-3.175,0-6.037-1.133-8.137-2.979
	c-0.957,0.186-1.944,0.293-2.969,0.293c-7.619,0-13.802-5.529-13.802-12.337c0-0.742,0.068-1.455,0.205-2.159
	c-0.01,0.264-0.029,0.537-0.029,0.811c0,6.808,6.183,12.327,13.812,12.327c1.016,0,2.012-0.098,2.969-0.283
	c2.09,1.836,4.962,2.979,8.127,2.979c3.389,0,6.437-1.299,8.557-3.37c2.071,1.729,4.855,2.794,7.912,2.794
	c3.223,0,6.134-1.172,8.234-3.067c2.1,1.895,5.021,3.067,8.234,3.067c5.275,0,9.719-3.145,11.126-7.443
	c1.631,0.791,3.516,1.241,5.509,1.241C345.117,55.218,349.835,51.574,350.841,46.768z M307.95,41.865
	c-14.535-1.348-15.55,12.044-4.278,14.486c10.168,2.198,14.075-7.551,5.568-10.51c-7.541-2.628-11.682,4.415-5.841,6.857
	c4.083,1.719,7.14-1.416,4.698-3.116c-1.299-0.899-2.295,0.098-2.969-0.899c2.422-2.657,8.439,2.129,4.015,4.835
	c-5.363,3.282-14.036-3.731-7.697-7.941c6.124-4.073,17.416,2.667,12.513,8.889c-5.079,6.447-20.219,1.739-19.038-6.574
	c1.368-9.67,21.05-9.289,25.387,1.465c0.469,1.133,1.055,3.936-0.059,4.776c-0.352-0.078-0.42-2.295-0.518-2.813
	C318.812,46.593,314.426,42.891,307.95,41.865z M291.511,25.826c9.553-3.497,15.843,6.681,9.006,10.471
	c-6.154,3.419-12.933-3.448-8.244-7.179c4.151-3.302,9.963,1.436,6.916,4.317c-2.129,2.012-5.568,0.107-4.562-1.621
	c0.527-0.908,1.641-0.313,1.69-1.192c-2.794-1.651-4.991,3.067-0.781,4.415c5.099,1.631,8.205-5.255,2.051-7.443
	c-5.968-2.11-11.008,5.011-5.011,8.986c6.222,4.122,14.798-2.071,10.51-8.293c-4.972-7.248-18.52-3.634-17.064,5.421
	c0.156,0.957,0.908,3.214,2.041,3.673c0.205-0.107-0.674-1.836-0.82-2.256C285.914,31.316,287.428,27.711,291.511,25.826z
	 M269.162,41.543c-8,9.074,3.536,19.34,11.008,13.294c6.73-5.441-0.195-15.101-6.828-11.34c-5.89,3.331-1.504,11.213,3.419,8.928
	c3.448-1.592,2.071-5.949-0.596-5.47c-1.416,0.254-0.987,1.661-2.198,1.407c-1.26-3.575,5.861-4.308,6.212,0.684
	c0.44,6.046-9.905,7.023-10.725-0.352c-0.791-7.15,10.539-10.119,13.831-2.295c3.409,8.117-7.892,15.199-14.798,8.449
	c-8.039-7.853,1.495-21.177,13.177-16.488c1.241,0.498,4.024,2.09,4.259,3.458c-0.225,0.186-2.247-1.348-2.764-1.661
	C278.481,37.421,273.108,37.801,269.162,41.543z M323.452,23.628c-9.856-3.604-16.342,6.886-9.289,10.803
	c6.339,3.526,13.333-3.565,8.508-7.414c-4.288-3.399-10.286,1.485-7.14,4.454c2.198,2.071,5.734,0.107,4.708-1.67
	c-0.547-0.938-1.69-0.322-1.739-1.231c2.872-1.7,5.138,3.165,0.801,4.552c-5.265,1.68-8.469-5.421-2.12-7.668
	c6.154-2.178,11.36,5.157,5.167,9.26c-6.417,4.259-15.257-2.129-10.842-8.557c5.138-7.463,19.096-3.741,17.602,5.597
	c-0.166,0.987-0.938,3.311-2.1,3.79c-0.215-0.117,0.684-1.895,0.84-2.335C329.215,29.284,327.662,25.572,323.452,23.628z
	 M345.302,40.507c6.759,7.082-2.999,15.082-9.309,10.373c-5.685-4.249,0.166-11.78,5.773-8.85c4.972,2.598,1.27,8.742-2.891,6.964
	c-2.921-1.25-1.748-4.64,0.508-4.269c1.192,0.205,0.83,1.299,1.856,1.104c1.065-2.794-4.952-3.36-5.255,0.527
	c-0.371,4.718,8.381,5.48,9.065-0.273c0.674-5.568-8.908-7.892-11.692-1.788c-2.882,6.32,6.671,11.848,12.513,6.584
	c6.798-6.115-1.26-16.508-11.145-12.854c-1.045,0.391-3.399,1.631-3.595,2.696c0.195,0.147,1.895-1.055,2.335-1.289
	C337.42,37.294,341.962,37.596,345.302,40.507z"/>
<path style="fill:#FFFFFF;" d="M85.654,112.115c2.393,0,4.649,0.508,6.652,1.407c2.159-1.895,5.118-3.057,8.391-3.057
	c5.656,0,10.403,3.497,11.673,8.205c2.823,0.762,5.099,2.667,6.134,5.118c0.332-0.029,0.684-0.049,1.026-0.049
	c5.236,0,9.475,3.79,9.475,8.459c0,4.679-4.239,8.459-9.475,8.459c-1.621,0-3.155-0.361-4.493-1.006
	c-1.153,3.516-4.786,6.076-9.094,6.076c-2.628,0-5.011-0.957-6.73-2.501c-1.709,1.543-4.093,2.501-6.72,2.501
	c-2.51,0-4.776-0.86-6.476-2.276c-1.729,1.69-4.22,2.755-6.984,2.755c-2.588,0-4.943-0.928-6.652-2.432
	c-0.781,0.147-1.592,0.234-2.422,0.234c-6.232,0-11.282-4.513-11.282-10.08s5.05-10.08,11.282-10.08c0.342,0,0.674,0.01,1.006,0.039
	C71.764,117.263,78.035,112.115,85.654,112.115z"/>
<path style="fill:#DFDFDF;" d="M128.984,132.657c-0.264,4.464-4.396,8-9.455,8c-1.621,0-3.155-0.361-4.493-1.006
	c-1.153,3.516-4.786,6.076-9.094,6.076c-2.628,0-5.011-0.957-6.73-2.501c-1.709,1.543-4.093,2.501-6.72,2.501
	c-2.51,0-4.776-0.86-6.476-2.276c-1.729,1.69-4.22,2.755-6.984,2.755c-2.588,0-4.943-0.928-6.652-2.432
	c-0.781,0.147-1.592,0.234-2.422,0.234c-6.232,0-11.282-4.513-11.282-10.08c0-0.606,0.059-1.192,0.176-1.768
	c-0.02,0.215-0.029,0.44-0.029,0.664c0,5.568,5.05,10.08,11.282,10.08c0.83,0,1.651-0.088,2.422-0.234
	c1.709,1.504,4.063,2.432,6.652,2.432c2.764,0,5.255-1.065,6.984-2.755c1.7,1.416,3.966,2.286,6.476,2.286
	c2.628,0,5.011-0.967,6.72-2.51c1.719,1.543,4.102,2.51,6.73,2.51c4.308,0,7.941-2.579,9.094-6.085
	c1.338,0.645,2.872,1.006,4.503,1.006C124.315,139.553,128.164,136.583,128.984,132.657z M93.937,128.642
	c-11.878-1.094-12.708,9.846-3.487,11.839c8.303,1.807,11.497-6.163,4.542-8.586c-6.163-2.139-9.543,3.604-4.767,5.607
	c3.331,1.397,5.831-1.162,3.829-2.549c-1.055-0.733-1.875,0.088-2.413-0.733c1.973-2.178,6.886,1.739,3.272,3.956
	c-4.386,2.676-11.467-3.057-6.29-6.496c5.011-3.331,14.232,2.188,10.227,7.267c-4.151,5.265-16.517,1.416-15.56-5.372
	c1.114-7.902,17.201-7.599,20.757,1.201c0.371,0.928,0.85,3.214-0.059,3.897c-0.283-0.059-0.342-1.875-0.42-2.305
	C102.816,132.51,99.231,129.482,93.937,128.642z M80.506,115.544c7.804-2.862,12.942,5.45,7.365,8.557
	c-5.03,2.794-10.579-2.823-6.75-5.87c3.399-2.696,8.146,1.172,5.656,3.526c-1.739,1.651-4.542,0.088-3.731-1.319
	c0.43-0.742,1.348-0.254,1.387-0.977c-2.286-1.348-4.073,2.51-0.635,3.604c4.161,1.328,6.71-4.298,1.67-6.076
	c-4.874-1.729-8.996,4.093-4.093,7.345c5.089,3.37,12.093-1.7,8.596-6.789c-4.073-5.91-15.14-2.96-13.948,4.435
	c0.127,0.781,0.742,2.628,1.661,3.008c0.176-0.098-0.537-1.504-0.664-1.856C75.935,120.027,77.166,117.077,80.506,115.544z
	 M62.241,128.379c-6.535,7.424,2.891,15.814,8.996,10.872c5.499-4.444-0.156-12.347-5.587-9.27
	c-4.806,2.725-1.221,9.162,2.803,7.297c2.813-1.309,1.69-4.864-0.488-4.474c-1.153,0.215-0.811,1.358-1.797,1.153
	c-1.026-2.921,4.786-3.516,5.079,0.557c0.361,4.943-8.098,5.743-8.762-0.293c-0.645-5.831,8.605-8.264,11.301-1.866
	c2.784,6.632-6.447,12.415-12.093,6.906c-6.574-6.417,1.221-17.309,10.764-13.48c1.016,0.41,3.292,1.709,3.477,2.823
	c-0.186,0.156-1.827-1.104-2.256-1.348C69.859,125.018,65.464,125.331,62.241,128.379z M106.606,113.746
	c-8.058-2.95-13.353,5.626-7.59,8.82c5.187,2.882,10.901-2.911,6.955-6.046c-3.507-2.784-8.4,1.211-5.841,3.634
	c1.797,1.7,4.689,0.088,3.849-1.367c-0.44-0.762-1.377-0.254-1.416-1.006c2.344-1.387,4.2,2.588,0.645,3.722
	c-4.288,1.377-6.916-4.425-1.719-6.271c5.021-1.778,9.279,4.22,4.22,7.58c-5.245,3.477-12.474-1.748-8.859-6.994
	c4.19-6.105,15.609-3.057,14.378,4.571c-0.127,0.801-0.762,2.706-1.709,3.096c-0.176-0.098,0.557-1.553,0.684-1.905
	C111.314,118.366,110.044,115.329,106.606,113.746z M124.462,127.538c5.529,5.783-2.442,12.327-7.599,8.478
	c-4.649-3.468,0.137-9.631,4.718-7.228c4.063,2.12,1.035,7.14-2.364,5.685c-2.383-1.016-1.436-3.79,0.41-3.487
	c0.977,0.166,0.684,1.055,1.514,0.899c0.879-2.276-4.044-2.745-4.288,0.44c-0.303,3.849,6.847,4.474,7.404-0.225
	c0.547-4.562-7.277-6.457-9.553-1.465c-2.354,5.167,5.45,9.68,10.227,5.382c5.558-5.001-1.035-13.489-9.104-10.5
	c-0.86,0.313-2.784,1.328-2.94,2.198c0.156,0.117,1.553-0.86,1.905-1.055C118.025,124.911,121.736,125.155,124.462,127.538z"/>
<polygon style="fill:#4D4D4D;" points="314.26,344.707 318.382,344.707 318.382,358.919 314.26,358.919 "/>
<path style="fill:#606060;" d="M311.047,338.367h10.549c0.928,0,1.69,0.762,1.69,1.7v6.242c0,0.938-0.762,1.7-1.69,1.7h-10.549
	c-0.928,0-1.69-0.762-1.69-1.7v-6.242C309.357,339.129,310.119,338.367,311.047,338.367z"/>
<path style="fill:#747474;" d="M311.047,339.363h10.549c0.381,0,0.694,0.313,0.694,0.703v6.242c0,0.381-0.313,0.703-0.694,0.703
	h-10.549c-0.381,0-0.694-0.322-0.694-0.703v-6.242C310.353,339.676,310.666,339.363,311.047,339.363z"/>
<path style="fill:#424242;" d="M202.868,342.567h3.976c1.084,0-0.117,0.908,0.039,1.983l2.842,20.044h19.829
	c1.094,0,1.993,0.899,1.993,1.993v1.25c0,1.084-0.899,1.983-1.993,1.983h-2.012v11.829h-16.263V369.82h-5.568
	c-1.094,0-1.983-0.889-1.983-1.983v-1.827v-2.149l-2.852-19.311C200.719,343.466,201.774,342.567,202.868,342.567z M251.707,360.364
	l8.508,4.298l0.264,3.946l-10.08-5.226l-3.8,8.742c-0.606,1.397-2.256,2.051-3.653,1.436l0,0c-1.407-0.606-2.051-2.247-1.446-3.653
	l9.68-22.28c0.606-1.397,2.256-2.041,3.653-1.436l0,0c1.407,0.606,2.051,2.247,1.446,3.653L251.707,360.364z"/>
<g>
	<path style="fill:#747474;" d="M202.868,342.567h3.966c1.094,0-0.107,0.908,0.049,1.983l2.842,20.044h0.899l-1.993,5.236h-2.921
		c-1.094,0-1.993-0.899-1.993-1.993v-1.817v-2.159l-2.842-19.311C200.719,343.466,201.774,342.567,202.868,342.567z
		 M215.928,364.594h6.71l-6.476,17.055h-4.884v-4.825L215.928,364.594z"/>
	<path style="fill:#747474;" d="M214.746,381.648h123.846c8.146,0,3.907,6.486,3.907,14.632v13.939c0,0.576-0.029,1.143-0.098,1.7
		h19.858v8.752h-24.097c-2.686,2.696-6.398,4.366-10.481,4.366h-89.229h-35.457h-53.049l20.669-56.253l31.618,0.313L214.746,381.648
		z"/>
</g>
<path style="fill:#606060;" d="M357.219,421.921h-19.057c-2.686,1.924-6.398,3.116-10.481,3.116h-89.229h-35.457h-53.049
	l3.565-6.916h203.708V421.921z"/>
<path style="fill:#424242;" d="M359.192,404.72h9.123c1.084,0,1.973,0.889,1.973,1.973v19.213c0,1.084-0.889,1.963-1.973,1.963
	h-9.123c-1.084,0-1.973-0.879-1.973-1.963v-19.213C357.219,405.609,358.108,404.72,359.192,404.72z"/>
<path style="fill:#FF6E40;" d="M267.844,350.997l68.179,5.558c13.235,1.084,17.494,14.212,17.494,28.815v6.183
	c0,14.603,0.733,18.725-12.542,18.725h-56.858c-13.274,0-24.127-11.946-24.127-26.549v-6.173
	C259.99,362.943,254.608,349.923,267.844,350.997z"/>
<path style="fill:#FF3C00;" d="M353.283,379.656c0.156,1.866,0.234,3.78,0.234,5.714v6.183c0,14.603,0.733,18.725-12.542,18.725
	h-56.858c-13.274,0-24.127-11.946-24.127-26.549v-6.173c0-7.179-1.299-13.968-1.055-18.891l75.017,5.099
	C344.873,364.506,350.704,370.953,353.283,379.656z"/>
<path style="fill:#424242;" d="M290.788,306.114v2.081v5.06c3.165,0,5.743,2.588,5.743,5.753v14.466
	c0,3.155-2.579,5.743-5.743,5.743v12.737h3.311c1.358,0,2.471,1.348,2.471,2.999l0,0c0,1.651-1.114,2.999-2.471,2.999h-13.939
	c-1.367,0-2.481-1.348-2.481-2.999l0,0c0-1.651,1.114-2.999,2.481-2.999h4.62v-12.737h-1.319c-3.165,0-5.743-2.588-5.743-5.743
	v-14.466c0-3.165,2.579-5.753,5.743-5.753h1.319v-7.863v-2.569c0-4.21,6.085-6.72,9.26-6.037v4.591
	c-1.934-0.254-3.262,0.781-3.262,1.553C290.778,303.994,290.788,305.049,290.788,306.114z"/>
<path style="fill:#202020;" d="M186.341,379.265c1.387,0.098,2.745,0.273,4.093,0.508l1.162-2.315
	c0.361-0.703,0.977-1.231,1.739-1.035l2.217,0.576c0.762,0.195,1.055,0.947,1.026,1.739l-0.088,2.598
	c1.309,0.44,2.588,0.957,3.829,1.524l1.709-1.954c0.518-0.596,1.25-0.947,1.944-0.567l2.002,1.104
	c0.684,0.371,0.781,1.182,0.567,1.934l-0.742,2.51c1.143,0.752,2.256,1.563,3.321,2.422l2.149-1.475
	c0.654-0.449,1.455-0.606,2.022-0.068l1.67,1.573c0.576,0.537,0.469,1.338,0.068,2.012l-1.348,2.247
	c0.928,1.016,1.807,2.071,2.628,3.175l2.442-0.899c0.742-0.264,1.553-0.215,1.973,0.44l1.231,1.934
	c0.42,0.664,0.117,1.426-0.449,1.973l-1.846,1.836c0.645,1.211,1.231,2.452,1.748,3.731l2.588-0.264
	c0.781-0.078,1.563,0.176,1.797,0.918l0.713,2.178c0.244,0.742-0.244,1.407-0.918,1.797l-2.247,1.319
	c0.313,1.328,0.576,2.676,0.762,4.054l2.569,0.391c0.781,0.117,1.475,0.547,1.524,1.338l0.137,2.276
	c0.059,0.791-0.576,1.309-1.328,1.524l-2.52,0.713c-0.02,1.387-0.107,2.764-0.254,4.112l2.393,1.026
	c0.723,0.303,1.28,0.889,1.133,1.67l-0.42,2.247c-0.147,0.772-0.889,1.114-1.67,1.133l-2.608,0.068
	c-0.361,1.338-0.791,2.647-1.28,3.917l2.061,1.582c0.625,0.479,1.026,1.192,0.684,1.905l-0.967,2.071
	c-0.332,0.713-1.133,0.86-1.905,0.684l-2.54-0.576c-0.684,1.192-1.416,2.354-2.208,3.468l1.602,2.051
	c0.488,0.625,0.694,1.407,0.186,2.012l-1.446,1.768c-0.508,0.606-1.319,0.547-2.022,0.186l-2.325-1.192
	c-0.947,0.987-1.954,1.924-2.999,2.813l1.045,2.383c0.322,0.723,0.322,1.534-0.313,2.002l-1.846,1.338
	c-0.635,0.469-1.407,0.215-2.002-0.313l-1.944-1.729c-1.172,0.713-2.374,1.377-3.614,1.983l0.42,2.569
	c0.127,0.772-0.068,1.563-0.801,1.856l-2.12,0.84c-0.733,0.283-1.416-0.156-1.856-0.801l-1.455-2.159
	c-1.309,0.4-2.637,0.742-3.995,1.016l-0.234,2.588c-0.068,0.781-0.459,1.504-1.231,1.602l-2.276,0.283
	c-0.781,0.107-1.328-0.498-1.592-1.231l-0.879-2.471c-0.674,0.039-1.358,0.059-2.041,0.059c-0.694,0-1.387-0.02-2.071-0.059
	l-0.869,2.461c-0.264,0.742-0.82,1.338-1.602,1.241l-2.266-0.283c-0.781-0.098-1.172-0.82-1.241-1.602l-0.234-2.588
	c-1.358-0.283-2.696-0.625-3.995-1.026l-1.446,2.149c-0.44,0.654-1.123,1.094-1.856,0.811l-2.129-0.84
	c-0.723-0.293-0.928-1.084-0.801-1.856l0.42-2.569c-1.241-0.606-2.442-1.27-3.614-1.993l-1.934,1.729
	c-0.586,0.527-1.368,0.781-2.002,0.322l-1.846-1.348c-0.635-0.459-0.635-1.27-0.322-1.993l1.045-2.393
	c-1.035-0.899-2.041-1.836-2.999-2.823l-2.315,1.201c-0.694,0.361-1.504,0.41-2.012-0.195l-1.455-1.758
	c-0.498-0.606-0.293-1.397,0.186-2.012l1.612-2.051c-0.791-1.123-1.534-2.286-2.208-3.487l-2.54,0.586
	c-0.762,0.176-1.563,0.029-1.905-0.684l-0.967-2.061c-0.342-0.713,0.059-1.426,0.674-1.905l2.071-1.592
	c-0.488-1.28-0.918-2.588-1.28-3.917l-2.588-0.068c-0.791-0.02-1.534-0.361-1.68-1.133l-0.43-2.247
	c-0.147-0.772,0.41-1.367,1.133-1.67l2.403-1.035c-0.147-1.348-0.234-2.715-0.254-4.102l-2.51-0.713
	c-0.752-0.215-1.387-0.733-1.338-1.514l0.137-2.286c0.059-0.781,0.742-1.221,1.524-1.338l2.579-0.4
	c0.186-1.367,0.449-2.725,0.772-4.044l-2.247-1.319c-0.684-0.391-1.162-1.045-0.928-1.797l0.703-2.168
	c0.244-0.752,1.026-0.996,1.807-0.928l2.588,0.264c0.527-1.28,1.114-2.53,1.758-3.731l-1.846-1.827
	c-0.567-0.557-0.869-1.309-0.449-1.973l1.231-1.934c0.42-0.664,1.231-0.713,1.973-0.44l2.452,0.889
	c0.82-1.104,1.7-2.159,2.628-3.175l-1.348-2.227c-0.4-0.674-0.508-1.485,0.068-2.022l1.661-1.573
	c0.576-0.537,1.377-0.381,2.022,0.059l2.159,1.485c1.065-0.86,2.178-1.67,3.331-2.422l-0.742-2.501
	c-0.225-0.752-0.127-1.563,0.557-1.944l2.002-1.104c0.684-0.371,1.426-0.029,1.944,0.567l1.719,1.954
	c1.241-0.567,2.52-1.074,3.829-1.514l-0.098-2.598c-0.029-0.781,0.264-1.543,1.026-1.739l2.217-0.567
	c0.752-0.195,1.387,0.322,1.739,1.026l1.172,2.325c1.358-0.244,2.745-0.41,4.151-0.518l0.547-2.549
	c0.166-0.762,0.645-1.426,1.436-1.426h2.286c0.781,0,1.26,0.664,1.426,1.426L186.341,379.265z"/>
<path style="fill:#DFDFDF;" d="M184.407,397.414c12.356,0,22.378,10.022,22.378,22.378c0,12.366-10.022,22.388-22.378,22.388
	c-12.366,0-22.388-10.022-22.388-22.388C162.019,407.435,172.041,397.414,184.407,397.414z"/>
<path style="fill:#202020;" d="M305.284,397.599c1.084,0.078,2.159,0.215,3.214,0.4l0.918-1.827
	c0.283-0.557,0.772-0.967,1.367-0.811l1.748,0.449c0.596,0.156,0.83,0.752,0.811,1.367l-0.078,2.051
	c1.035,0.352,2.041,0.752,3.018,1.201l1.348-1.543c0.41-0.469,0.987-0.742,1.524-0.449l1.582,0.869
	c0.537,0.303,0.615,0.938,0.44,1.534l-0.576,1.963c0.899,0.596,1.778,1.231,2.618,1.914l1.69-1.162
	c0.508-0.352,1.143-0.479,1.592-0.049l1.309,1.231c0.449,0.42,0.371,1.055,0.049,1.592l-1.055,1.768
	c0.733,0.791,1.416,1.621,2.071,2.491l1.924-0.703c0.576-0.205,1.221-0.176,1.553,0.352l0.967,1.514
	c0.332,0.527,0.088,1.123-0.352,1.553l-1.455,1.446c0.508,0.957,0.967,1.934,1.377,2.94l2.032-0.205
	c0.615-0.059,1.231,0.137,1.426,0.723l0.557,1.709c0.186,0.596-0.195,1.114-0.723,1.416l-1.778,1.045
	c0.254,1.035,0.459,2.1,0.606,3.184l2.032,0.313c0.606,0.088,1.153,0.43,1.192,1.045l0.117,1.797
	c0.029,0.625-0.459,1.026-1.055,1.201l-1.983,0.557c-0.02,1.094-0.088,2.178-0.205,3.243l1.885,0.801
	c0.576,0.244,1.016,0.713,0.899,1.319l-0.342,1.768c-0.107,0.606-0.694,0.879-1.309,0.889l-2.051,0.059
	c-0.283,1.055-0.625,2.081-1.006,3.087l1.621,1.241c0.488,0.381,0.801,0.938,0.537,1.504l-0.762,1.631
	c-0.264,0.557-0.889,0.674-1.494,0.537l-2.002-0.459c-0.537,0.938-1.123,1.856-1.748,2.735l1.27,1.612
	c0.381,0.488,0.547,1.114,0.147,1.582l-1.143,1.387c-0.391,0.479-1.035,0.44-1.582,0.156l-1.836-0.947
	c-0.742,0.781-1.534,1.524-2.364,2.217l0.83,1.885c0.244,0.567,0.254,1.201-0.244,1.573l-1.455,1.055
	c-0.508,0.361-1.114,0.166-1.573-0.244l-1.543-1.367c-0.918,0.567-1.866,1.084-2.842,1.563l0.332,2.022
	c0.107,0.606-0.049,1.231-0.625,1.455l-1.68,0.664c-0.567,0.234-1.114-0.117-1.455-0.625l-1.143-1.7
	c-1.026,0.313-2.081,0.586-3.145,0.801l-0.186,2.032c-0.059,0.625-0.361,1.182-0.977,1.26l-1.788,0.234
	c-0.606,0.068-1.045-0.4-1.25-0.977l-0.694-1.944c-0.527,0.029-1.065,0.039-1.602,0.039c-0.557,0-1.094-0.01-1.641-0.039
	l-0.684,1.934c-0.205,0.586-0.635,1.055-1.25,0.977l-1.788-0.225c-0.615-0.078-0.918-0.635-0.977-1.26l-0.186-2.032
	c-1.065-0.225-2.12-0.488-3.145-0.811l-1.143,1.7c-0.342,0.508-0.879,0.86-1.455,0.625l-1.67-0.654
	c-0.576-0.234-0.733-0.85-0.635-1.465l0.322-2.022c-0.977-0.479-1.914-0.996-2.833-1.573l-1.534,1.367
	c-0.459,0.41-1.074,0.615-1.573,0.254l-1.455-1.055c-0.498-0.371-0.498-1.006-0.254-1.582l0.83-1.885
	c-0.82-0.694-1.612-1.436-2.364-2.217l-1.827,0.947c-0.547,0.283-1.182,0.322-1.582-0.147l-1.143-1.387
	c-0.4-0.479-0.234-1.104,0.147-1.592l1.26-1.612c-0.625-0.879-1.201-1.797-1.739-2.745l-1.993,0.459
	c-0.606,0.147-1.231,0.029-1.494-0.537l-0.772-1.621c-0.264-0.557,0.049-1.123,0.537-1.504l1.621-1.25
	c-0.381-1.006-0.713-2.032-0.996-3.087l-2.041-0.049c-0.625-0.02-1.201-0.283-1.319-0.889l-0.342-1.768
	c-0.117-0.615,0.322-1.074,0.889-1.319l1.895-0.811c-0.117-1.065-0.186-2.149-0.195-3.233l-1.983-0.567
	c-0.596-0.166-1.084-0.576-1.055-1.192l0.117-1.797c0.039-0.615,0.576-0.957,1.192-1.055l2.032-0.313
	c0.147-1.074,0.352-2.139,0.606-3.184l-1.768-1.035c-0.537-0.313-0.918-0.83-0.733-1.416l0.557-1.709
	c0.195-0.586,0.801-0.781,1.416-0.723l2.041,0.195c0.42-1.006,0.879-1.983,1.387-2.93l-1.455-1.446
	c-0.44-0.43-0.684-1.026-0.352-1.543l0.967-1.524c0.332-0.527,0.967-0.567,1.553-0.352l1.924,0.703
	c0.654-0.869,1.348-1.7,2.071-2.501l-1.055-1.758c-0.322-0.527-0.4-1.162,0.049-1.582l1.309-1.241
	c0.449-0.42,1.084-0.303,1.592,0.049l1.7,1.162c0.84-0.674,1.709-1.309,2.618-1.905l-0.576-1.963
	c-0.186-0.596-0.107-1.231,0.44-1.534l1.573-0.869c0.537-0.293,1.123-0.02,1.534,0.44l1.348,1.543
	c0.977-0.449,1.983-0.85,3.018-1.192l-0.078-2.041c-0.029-0.615,0.205-1.221,0.811-1.377l1.739-0.449
	c0.596-0.147,1.094,0.264,1.377,0.811l0.918,1.836c1.074-0.195,2.159-0.322,3.262-0.41l0.44-2.002
	c0.137-0.606,0.508-1.123,1.123-1.123h1.797c0.625,0,0.996,0.518,1.133,1.123L305.284,397.599z"/>
<path style="fill:#DFDFDF;" d="M303.75,411.88c9.738,0,17.631,7.892,17.631,17.631c0,9.729-7.892,17.621-17.631,17.621
	c-9.729,0-17.621-7.892-17.621-17.621C286.129,419.772,294.021,411.88,303.75,411.88z"/>
<path style="fill:#FF3C00;" d="M161.247,366.567h41.894l31.081,31.286l-4.63,2.002l-27.535-27.115l-39.315-0.42l-23.97,21.567
	c0,0-3.145-3.135-2.94-3.604C136.036,389.824,161.247,366.567,161.247,366.567z"/>
<path style="fill:#424242;" d="M262.559,402.298H239.81c-1.397,0-2.54,1.143-2.54,2.54v9.836c0,1.407,1.143,2.549,2.54,2.549h22.749
	c1.397,0,2.54-1.143,2.54-2.549v-9.836C265.099,403.44,263.956,402.298,262.559,402.298z"/>
<path style="fill:#FF9D7F;" d="M326.89,370.816h-43.203c-2.969,0-5.411,2.432-5.411,5.411v0.01c0,2.979,2.442,5.411,5.411,5.411
	h43.203c2.979,0,5.411-2.432,5.411-5.411v-0.01C332.301,373.248,329.869,370.816,326.89,370.816z"/>
<path style="fill:#FFDF81;" d="M321.596,341.063h-1.065v4.249h1.065V341.063z M312.648,341.063h-1.065v4.249h1.065V341.063z
	 M314.885,341.063h-1.065v4.249h1.065V341.063z M317.122,341.063h-1.065v4.249h1.065V341.063z M319.359,341.063h-1.065v4.249h1.065
	V341.063z"/>
<path style="fill:#E5E5E5;" d="M301.24,285.553c2.667-0.547,5.275,1.172,5.831,3.839c0.547,2.676-1.172,5.275-3.849,5.831
	c-2.667,0.547-5.275-1.172-5.822-3.839C296.854,288.708,298.573,286.1,301.24,285.553z M269.895,224.494
	c1.875,1.612,3.243,3.839,3.78,6.437c1.289,6.261-2.745,12.376-9.006,13.665c-4.913,1.016-9.729-1.25-12.2-5.304
	c-12.649,2.501-24.967-5.656-27.565-18.305c-0.342-1.67-0.498-3.35-0.479-4.991c-6.603-0.694-12.288-5.568-13.694-12.425
	c-1.739-8.469,3.712-16.742,12.18-18.481c7.326-1.504,14.515,2.374,17.445,8.938c0.908-0.313,1.856-0.567,2.823-0.772
	c12.698-2.608,25.113,5.577,27.731,18.276C271.829,216.035,271.399,220.499,269.895,224.494z M263.78,263.028
	c1.074-0.225,2.129-0.225,3.145-0.029c1.895-3.321,5.157-5.851,9.201-6.681c7.453-1.534,14.74,3.272,16.273,10.725
	c1.534,7.463-3.272,14.749-10.725,16.273c-5.138,1.055-10.198-0.899-13.353-4.649c-0.4,0.147-0.82,0.273-1.25,0.361
	c-4.425,0.908-8.742-1.934-9.651-6.359C256.513,268.254,259.365,263.936,263.78,263.028z"/>
<path style="fill:#FFED58;" d="M369.8,248.445c0.947,0,1.729,0.772,1.729,1.729c0,0.947-0.781,1.729-1.729,1.729
	c-0.957,0-1.729-0.781-1.729-1.729C368.071,249.216,368.843,248.445,369.8,248.445z"/>
<path style="fill:#F9BF2C;" d="M371.314,249.724c0,0.957-0.772,1.729-1.719,1.729c-0.606,0-1.133-0.313-1.446-0.781
	c0.215,0.713,0.869,1.231,1.651,1.231c0.957,0,1.729-0.772,1.729-1.719c0-0.352-0.107-0.674-0.283-0.947
	C371.295,249.392,371.314,249.558,371.314,249.724z"/>
<path style="fill:#FFFFFF;" d="M369.107,249.06c0.186,0,0.342,0.156,0.342,0.342c0,0.195-0.156,0.352-0.342,0.352
	c-0.195,0-0.352-0.156-0.352-0.352C368.755,249.216,368.911,249.06,369.107,249.06z"/>
<g>
</g>
<g>
</g>
<g>
</g>
<g>
</g>
<g>
</g>
<g>
</g>
<g>
</g>
<g>
</g>
<g>
</g>
<g>
</g>
<g>
</g>
<g>
</g>
<g>
</g>
<g>
</g>
<g>
</g>
</svg>
