<svg xmlns="http://www.w3.org/2000/svg" viewBox="3853.7 7700.5 14 19.9"><defs><style>.a{fill:#818d9b;}</style></defs><path class="a" d="M263.7,819.4h14v2h-14Zm13-12a10.837,10.837,0,0,1-1.5,4.8,25.022,25.022,0,0,1-3,4.5l-1.5,1.7c-.4-.5-1-1.1-1.7-1.9a28.812,28.812,0,0,1-2.7-4.1,10.614,10.614,0,0,1-1.7-4.9,5.447,5.447,0,0,1,1.8-4.2,6.174,6.174,0,0,1,4.2-1.8,5.6,5.6,0,0,1,4.2,1.8A6.054,6.054,0,0,1,276.7,807.4Zm-7.4-1.4a2,2,0,0,0,1.4,3.4,1.816,1.816,0,0,0,1.4-.6,1.98,1.98,0,1,0-2.8-2.8Z" transform="translate(3590 6899)"/></svg>