<svg xmlns="http://www.w3.org/2000/svg" viewBox="9634 7672 34 33"><defs><style>.a{fill:#444;}.b{fill:#fff;}</style></defs><g transform="translate(8079 7435)"><ellipse class="a" cx="17" cy="16.5" rx="17" ry="16.5" transform="translate(1555 237)"/><path class="b" d="M413.2,79.4a15.039,15.039,0,0,0,6.6,6.6l2.2-2.2a.8.8,0,0,1,1-.2,10.46,10.46,0,0,0,3.6.6,1.025,1.025,0,0,1,1,1v3.5a1.025,1.025,0,0,1-1,1,17.072,17.072,0,0,1-17-17,1.025,1.025,0,0,1,1-1h3.5a1.025,1.025,0,0,1,1,1,11.325,11.325,0,0,0,.6,3.6,1.093,1.093,0,0,1-.2,1Z" transform="translate(1154 173)"/></g></svg>