<svg xmlns="http://www.w3.org/2000/svg" viewBox="3852 8272.3 17.5 17.601"><defs><style>.a{fill:#f7b464;}</style></defs><path class="a" d="M15.5,1161.4l5,5-1.5,1.5-5-5v-.8l-.3-.3a6.362,6.362,0,0,1-4.2,1.5,6.039,6.039,0,0,1-4.6-1.9,6.6,6.6,0,0,1-1.9-4.6,6.039,6.039,0,0,1,1.9-4.6,6.6,6.6,0,0,1,4.6-1.9,6.19,6.19,0,0,1,4.6,1.9,6.6,6.6,0,0,1,1.9,4.6,6.361,6.361,0,0,1-1.5,4.2l.3.3h.7Zm-9.2-1.3a4.224,4.224,0,0,0,3.2,1.3,4.377,4.377,0,0,0,3.2-1.3,4.588,4.588,0,0,0,0-6.4,4.224,4.224,0,0,0-3.2-1.3,4.377,4.377,0,0,0-3.2,1.3,4.224,4.224,0,0,0-1.3,3.2A4.626,4.626,0,0,0,6.3,1160.1Z" transform="translate(3849 7122)"/></svg>