<?xml version="1.0"?>
<svg xmlns="http://www.w3.org/2000/svg" xmlns:xlink="http://www.w3.org/1999/xlink" version="1.1" id="Layer_1" x="0px" y="0px" viewBox="0 0 508 508" style="enable-background:new 0 0 508 508;" xml:space="preserve" width="512px" height="512px" class=""><g><circle style="fill:#FCFC5F" cx="254" cy="254" r="254" data-original="#FD8469" class="active-path" data-old_color="#F8F85D"/><path style="fill:#4CDBC4;" d="M368.8,106.4l-1.2,2.4c-5.6,11.2-8.8,24-9.6,37.2c-4,56.8-72.8,60.4-72.8,60.4  C268.4,109.2,368.8,106.4,368.8,106.4z" data-original="#4CDBC4" class=""/><path style="fill:#2C9984;" d="M360,112.4c-5.6,4-13.2,9.6-22,16.8c-4.4,3.6-9.2,8-13.6,12.4c-4.8,4.8-9.6,9.6-14,15.2  c-2.4,2.8-4.4,5.6-6.8,8.8c-2,3.2-4.4,6-6.4,9.2c-4,6.4-8,13.2-10.8,20.4s-5.2,14.8-6.4,22.4c-1.2,7.6-1.6,15.2-1.2,22.8  c0,2,0.4,3.6,0.8,5.6c0.4,1.6,0.4,3.2,0.8,4.8h6.4c0-0.4,0-0.4-0.4-0.8c-0.4-1.6-0.8-3.2-1.2-4.8c-0.4-1.6-0.8-3.2-0.8-5.2  c-0.8-6.8-0.8-14,0.4-21.6c0.8-7.2,2.8-14.4,5.6-21.6c2.4-7.2,6-14,9.6-20.4c2-3.2,4-6.4,6-9.2s4-6,6.4-8.8  c4.4-5.6,8.8-10.8,13.6-15.6c4.4-4.8,8.8-9.2,13.2-12.8C347.2,122.4,354.8,116.4,360,112.4c5.6-3.6,8.8-5.6,8.8-5.6  S365.6,108.4,360,112.4z" data-original="#2C9984"/><path style="fill:#4CDBC4;" d="M192.8,106.4l1.2,2.4c5.6,11.2,8.8,24,9.6,37.2c4,56.8,72.8,60.4,72.8,60.4  C293.2,109.2,192.8,106.4,192.8,106.4z" data-original="#4CDBC4" class=""/><path style="fill:#2C9984;" d="M261.6,176.8c3.6,6.4,7.2,13.2,9.6,20.4s4.4,14.4,5.6,21.6c0.8,7.2,1.2,14.4,0.4,21.6  c0,1.6-0.4,3.6-0.8,5.2c-0.4,1.6-0.4,3.2-1.2,4.8c0,0.4,0,0.4-0.4,0.8h6.4c0.4-1.6,0.4-3.2,0.8-4.8c0.4-2,0.4-3.6,0.8-5.6  c0.8-7.6,0-15.2-1.2-22.8s-3.6-15.2-6.4-22.4s-6.8-14-10.8-20.4c-2-3.2-4.4-6.4-6.4-9.2c-2.4-2.8-4.4-6-6.8-8.8  c-4.8-5.6-9.2-10.8-14-15.2c-4.8-4.8-9.2-8.8-13.6-12.4c-8.8-7.6-16.4-13.2-22-16.8c-5.6-4-8.8-5.6-8.8-5.6s3.2,2,8.8,6  c5.2,4,12.8,10,21.2,17.6c4.4,4,8.8,8.4,13.2,12.8c4.4,4.8,9.2,10,13.6,15.6c2.4,2.8,4.4,5.6,6.4,8.8  C258,170.4,260,173.6,261.6,176.8z" data-original="#2C9984"/><path style="fill:#FFD05B;" d="M343.6,315.6C342,276,314.8,244,280.8,244s-61.2,32-62.8,71.6H343.6z" data-original="#FFD05B"/><path style="fill:#FFFFFF" d="M409.6,268c0,3.6-1.2,7.2-4,10l-22.8,22.8l-36.4,36.4l0,0c-0.8,0.8-1.6,1.2-2.4,1.6  c-2.4,1.6-5.2,2.4-7.6,2.4H213.2L160.8,394l-51.6-51.6l62-62c11.6-11.6,27.6-18.4,44-18.4h96c7.6,0,14,6.4,14,14c0,4-1.6,7.6-4,10  s-6,4-10,4h-24.8H240c-4,0-7.2,3.2-7.2,7.2c0,2,0.8,3.6,2,4.8c1.2,1.2,3.2,2,4.8,2h99.6l3.6-3.6l42.8-42.4c5.6-5.6,14.4-5.6,20,0  C408.4,260.8,409.6,264.4,409.6,268z" data-original="#FFFFFF" class=""/></g> </svg>
